<svg width="277" height="64" viewBox="0 0 277 64" fill="none" xmlns="http://www.w3.org/2000/svg">
<mask id="mask0_45_701" style="mask-type:luminance" maskUnits="userSpaceOnUse" x="0" y="0" width="277" height="64">
<path d="M276.706 0H0V64H276.706V0Z" fill="white"/>
</mask>
<g mask="url(#mask0_45_701)">
<mask id="mask1_45_701" style="mask-type:luminance" maskUnits="userSpaceOnUse" x="0" y="0" width="278" height="64">
<path d="M277.296 0H0.402344V63.3901H277.296V0Z" fill="white"/>
</mask>
<g mask="url(#mask1_45_701)">
<path d="M91.2175 46.6387C90.3211 46.6392 89.4356 46.8354 88.6228 47.2135C87.81 47.5916 87.0895 48.1426 86.5116 48.8278C85.3296 50.2214 84.6865 51.9926 84.6989 53.8198C84.6684 55.0317 85.0944 56.2108 85.8923 57.1234C86.3347 57.5822 86.8687 57.9426 87.4596 58.1813C88.0505 58.42 88.6851 58.5316 89.322 58.5088H89.3446C90.2525 58.5076 91.1487 58.3042 91.9682 57.9135C92.7877 57.5228 93.5099 56.9545 94.0825 56.25C95.2273 54.8804 95.8578 53.154 95.865 51.369C95.892 50.1791 95.4912 49.019 94.7356 48.0994C94.2924 47.6095 93.7463 47.2238 93.1364 46.97C92.5265 46.7161 91.868 46.6004 91.2081 46.6311M92.3978 55.034C92.0994 55.5307 91.6848 55.9475 91.1897 56.2485C90.6946 56.5495 90.1337 56.7257 89.5554 56.762H89.5309C89.1741 56.772 88.8197 56.7016 88.4938 56.5559C88.1679 56.4103 87.879 56.1931 87.6486 55.9206C87.1617 55.3006 86.9097 54.5286 86.937 53.7408C86.9481 52.4476 87.336 51.1858 88.0533 50.1097C88.3586 49.6025 88.7846 49.1787 89.2933 48.8759C89.802 48.5731 90.3777 48.4008 90.9691 48.3742C91.3691 48.3525 91.7678 48.4358 92.1257 48.6158C92.4836 48.7957 92.7883 49.0661 93.0095 49.4001C93.3773 49.9916 93.5674 50.6763 93.5573 51.3728C93.5468 52.683 93.1428 53.9599 92.3978 55.0377M113.471 47.3389C112.915 46.8735 112.21 46.6242 111.485 46.6368C110.66 46.6508 109.851 46.8668 109.129 47.2658C108.407 47.6649 107.794 48.2348 107.344 48.9257C107.271 48.3497 107.018 47.8114 106.621 47.3878C106.344 47.1292 106.018 46.9291 105.662 46.7997C105.307 46.6703 104.928 46.6142 104.55 46.6349C103.763 46.6521 102.992 46.8563 102.3 47.2308C101.607 47.6053 101.014 48.1391 100.569 48.7883L100.855 46.889H98.8938L98.8768 46.985C98.7601 47.9017 98.5945 48.9822 98.3535 50.2264L96.7723 58.249H98.9352L100.029 52.5662C100.24 51.472 100.742 50.4549 101.482 49.6222C101.742 49.2915 102.066 49.0165 102.434 48.8134C102.802 48.6103 103.208 48.4834 103.626 48.4401C103.876 48.4128 104.128 48.4505 104.359 48.5494C104.59 48.6483 104.791 48.8052 104.944 49.0048C105.162 49.3828 105.264 49.8171 105.235 50.2528C105.232 50.7012 105.184 51.1481 105.094 51.5874L103.777 58.2566H105.915L107.044 52.4589C107.235 51.367 107.731 50.3511 108.473 49.5281C108.733 49.2169 109.052 48.9609 109.412 48.775C109.772 48.5891 110.166 48.4772 110.57 48.4457C110.805 48.4218 111.042 48.4535 111.262 48.5382C111.483 48.6229 111.68 48.7582 111.839 48.9333C112.114 49.3216 112.247 49.7929 112.215 50.2679C112.206 50.7484 112.15 51.2269 112.048 51.6966L110.779 58.2509H112.934L114.239 51.5798C114.356 50.949 114.419 50.3091 114.427 49.6674C114.452 49.2335 114.381 48.7995 114.218 48.3966C114.055 47.9936 113.805 47.6318 113.486 47.337M61.8566 46.6349C61.0748 46.6414 60.3193 46.9181 59.7182 47.418C59.1939 47.8655 58.7535 48.4029 58.4175 49.0048C58.5286 48.3046 58.6058 47.6589 58.6641 47.0076L58.6754 46.889H56.7083L56.6971 46.985C56.5747 48.0203 56.4109 49.4886 56.1323 50.938L54.6886 58.2528H56.8966L57.8679 53.2382C58.0764 52.0733 58.5526 50.9727 59.2589 50.0231C59.5112 49.6561 59.8428 49.3506 60.2293 49.1293C60.6158 48.9081 61.0472 48.7767 61.4914 48.745C61.6703 48.7464 61.8489 48.7597 62.026 48.7846L62.1295 48.8034L62.5549 46.7008L62.4382 46.6838C62.2441 46.6574 62.0487 46.6424 61.8528 46.6387M40.0627 47.3408C39.5098 46.8779 38.8091 46.6288 38.0881 46.6387C37.2613 46.652 36.4504 46.8674 35.7259 47.266C35.0015 47.6646 34.3856 48.2344 33.9319 48.9257C33.8626 48.3487 33.6092 47.8094 33.2091 47.3878C32.9343 47.1299 32.6103 46.9303 32.2564 46.8009C31.9025 46.6715 31.526 46.615 31.1498 46.6349C30.3599 46.6497 29.5852 46.8535 28.8902 47.2291C28.1953 47.6047 27.6004 48.1413 27.1554 48.794L27.4359 46.8947H25.4763L25.4632 46.9907C25.3446 47.9074 25.1808 48.9878 24.9436 50.2321L23.3662 58.2547H25.5178L26.6114 52.5718C26.8235 51.4778 27.3261 50.4609 28.0665 49.6279C28.3275 49.2971 28.6523 49.022 29.0215 48.819C29.3908 48.616 29.797 48.489 30.2161 48.4457C30.4657 48.4188 30.7181 48.4567 30.9489 48.5556C31.1796 48.6545 31.3811 48.8111 31.5338 49.0104C31.7488 49.3897 31.8495 49.8232 31.8236 50.2584C31.8199 50.7068 31.7726 51.1538 31.6825 51.593L30.3648 58.2622H32.5013L33.6194 52.4627C33.8132 51.3674 34.3131 50.3493 35.0613 49.5262C35.3214 49.2156 35.6409 48.9599 36.0009 48.7741C36.3609 48.5883 36.7543 48.476 37.1582 48.4438C37.393 48.4213 37.6298 48.4536 37.85 48.5382C38.0702 48.6228 38.2677 48.7574 38.4269 48.9314C38.6915 49.3241 38.8179 49.7935 38.7865 50.266C38.7807 50.7464 38.7265 51.2251 38.6246 51.6947L37.3559 58.249H39.5149L40.8326 51.578C40.9497 50.947 41.0127 50.3072 41.0208 49.6655C41.045 49.2307 40.9721 48.796 40.8074 48.3929C40.6426 47.9898 40.3902 47.6285 40.0683 47.3351M19.6938 42.2848C18.2844 42.2535 16.9052 42.6956 15.7766 43.5403C15.2591 43.9454 14.8411 44.4636 14.5546 45.0551C14.2682 45.6466 14.1208 46.2958 14.1239 46.953C14.1254 47.7931 14.4309 48.6041 14.9841 49.2363C15.6644 49.9849 16.4816 50.5963 17.3916 51.0377C18.0717 51.3497 18.6804 51.7982 19.1799 52.3554C19.525 52.7745 19.7086 53.3034 19.6975 53.8462C19.705 54.246 19.616 54.6418 19.4381 54.9999C19.2602 55.3581 18.9986 55.668 18.6754 55.9036C17.991 56.4014 17.1609 56.6582 16.3149 56.634C15.1255 56.6462 13.9588 56.3077 12.9606 55.6608L12.8495 55.5836L12.7949 55.7041L12.042 57.3455L12.106 57.3963C12.5895 57.7623 13.1431 58.025 13.7323 58.1681C14.4868 58.3808 15.2658 58.4941 16.0495 58.505C17.6223 58.5739 19.1669 58.0711 20.3978 57.0895C20.8993 56.6563 21.3004 56.119 21.5731 55.515C21.8459 54.911 21.9837 54.2548 21.9771 53.5921C21.9967 52.7015 21.7104 51.8311 21.1658 51.1262C20.531 50.3741 19.7412 49.7679 18.8505 49.3493C18.1685 49.0215 17.5418 48.5897 16.9926 48.0693C16.7997 47.8697 16.6483 47.6338 16.5471 47.3753C16.446 47.1169 16.3972 46.8409 16.4034 46.5634C16.4111 46.2454 16.4876 45.9328 16.6277 45.6472C16.7677 45.3615 16.968 45.1096 17.2147 44.9088C17.8578 44.3834 18.67 44.1098 19.4999 44.1389H19.5959C20.5194 44.1451 21.4247 44.3958 22.2199 44.8655L22.3309 44.9257L23.1328 43.1657L23.0575 43.1149C22.0353 42.5347 20.8722 42.2493 19.6975 42.2904M65.9695 53.961L67.0086 48.6151H69.7869L70.1408 46.8966H67.3643L67.8989 44.1803L67.7295 44.2293L65.5799 44.8674L65.1789 46.8947H63.5281L63.1949 48.6133H64.8495L63.754 54.1229C63.5906 54.8167 63.5016 55.526 63.4886 56.2387C63.4778 56.5307 63.525 56.8219 63.6274 57.0956C63.7298 57.3692 63.8854 57.6199 64.0853 57.833C64.347 58.0725 64.6547 58.2564 64.9895 58.3735C65.3244 58.4906 65.6796 58.5386 66.0335 58.5144C66.5663 58.5291 67.0978 58.4566 67.6072 58.2998L67.6731 58.2754L67.7785 56.5568L67.6354 56.5944C67.3383 56.6646 67.0332 56.695 66.7281 56.6848C66.5917 56.6932 66.4549 56.6746 66.3257 56.6301C66.1965 56.5855 66.0774 56.5158 65.9752 56.425C65.8117 56.2253 65.7297 55.9711 65.7455 55.7135C65.7586 55.1225 65.8368 54.5348 65.9789 53.961H65.9695ZM50.6585 46.6443C49.5408 46.6234 48.4316 46.8409 47.4046 47.2823C46.3776 47.7237 45.4565 48.3789 44.7027 49.2043C43.3356 50.7176 42.5748 52.6821 42.5662 54.7215C42.5331 55.7065 42.8581 56.6702 43.4811 57.434C43.796 57.7864 44.184 58.066 44.6179 58.2532C45.0519 58.4405 45.5215 58.5309 45.994 58.5182C46.862 58.5279 47.7135 58.2803 48.4411 57.8067C49.2411 57.2609 49.9041 56.5374 50.378 55.6928C50.2662 56.5106 50.1964 57.3337 50.1691 58.1587V58.2622H52.2396V58.1493C52.2396 57.9949 52.2396 57.8311 52.2396 57.6561C52.2592 56.0992 52.4211 54.5473 52.7234 53.0198L53.9131 47.0942L53.8171 47.0622C52.7911 46.7872 51.7338 46.6467 50.6716 46.6443M50.7846 51.7737C50.5578 53.0923 49.99 54.3285 49.1375 55.3596C48.8514 55.7451 48.4873 56.0661 48.069 56.3015C47.6506 56.537 47.1873 56.6817 46.7093 56.7262C46.4258 56.7469 46.1418 56.6919 45.8865 56.5669C45.6312 56.4418 45.4137 56.2513 45.2561 56.0147C44.971 55.5175 44.8326 54.9497 44.8571 54.377C44.8729 52.8528 45.4323 51.3844 46.4345 50.2358C46.8926 49.6755 47.4659 49.2202 48.1154 48.901C48.765 48.5817 49.4757 48.4059 50.1992 48.3855C50.6133 48.3729 51.0273 48.4153 51.4302 48.5116L50.7846 51.7737ZM81.0528 49.0631H73.8378L75.1347 42.5163H72.9267L69.8283 58.2547H72.0288L73.4613 50.953H80.633L79.2269 58.2528H81.4293L84.5371 42.5107H82.3309L81.0528 49.0631ZM216.343 46.8984L213.348 53.1554C212.818 54.2453 212.496 54.9794 212.219 55.6307C212.098 54.8947 211.961 54.1079 211.728 52.9747L210.566 46.9003H208.277L210.634 57.4904C210.646 57.5575 210.653 57.6255 210.655 57.6937C210.656 57.7742 210.632 57.8531 210.587 57.9196C210.034 58.9145 209.278 59.7817 208.368 60.4646C207.727 60.9252 207.02 61.2857 206.271 61.5337L206.175 61.5657L206.739 63.3991L206.837 63.3766C208.121 63.0384 209.293 62.3692 210.237 61.4358C211.898 59.7109 213.254 57.716 214.246 55.5366L218.687 46.9041L216.343 46.8984ZM195.575 46.7102L195.453 46.6933C195.258 46.6668 195.062 46.6517 194.866 46.6481C194.085 46.6585 193.331 46.9347 192.729 47.4311C192.205 47.8782 191.765 48.4156 191.43 49.018C191.541 48.3177 191.618 47.6702 191.675 47.0189L191.69 46.9003H189.727L189.712 46.9963C189.595 48.0316 189.426 49.4999 189.147 50.9493L187.705 58.266H189.919L190.89 53.2514C191.099 52.0855 191.577 50.9845 192.287 50.0363C192.538 49.6692 192.868 49.3636 193.254 49.1423C193.639 48.9209 194.07 48.7896 194.514 48.7582C194.692 48.7595 194.87 48.7727 195.046 48.7977L195.15 48.8166L195.575 46.7102ZM195.044 58.2641H197.254L199.492 46.9022H197.284L195.044 58.2641ZM199.071 42.249C198.682 42.2524 198.311 42.4079 198.036 42.6821C197.761 42.9562 197.605 43.3272 197.601 43.7154C197.59 44.0711 197.718 44.417 197.956 44.681C198.075 44.8073 198.218 44.9073 198.378 44.9745C198.537 45.0416 198.709 45.0744 198.882 45.0707H198.911C199.305 45.0796 199.687 44.9336 199.974 44.6641C200.118 44.527 200.232 44.3623 200.31 44.1798C200.388 43.9973 200.428 43.8009 200.428 43.6024C200.434 43.2431 200.298 42.8959 200.051 42.6349C199.921 42.5097 199.767 42.4119 199.598 42.3473C199.429 42.2826 199.249 42.2524 199.069 42.2584M184.708 46.8928L183.564 52.6961C183.356 53.7824 182.838 54.7853 182.073 55.5836C181.516 56.2168 180.734 56.6078 179.893 56.6735C179.646 56.6961 179.396 56.6631 179.163 56.5772C178.93 56.4912 178.719 56.3544 178.546 56.1766C178.266 55.7925 178.133 55.3213 178.169 54.8476C178.178 54.305 178.241 53.7646 178.357 53.2344L179.596 46.8871H177.42L176.136 53.2608C176 53.8876 175.926 54.5263 175.914 55.1676C175.854 55.606 175.893 56.0523 176.029 56.4734C176.165 56.8946 176.394 57.2797 176.699 57.6003C177.004 57.9208 177.377 58.1686 177.791 58.3253C178.205 58.4819 178.649 58.5433 179.09 58.505C179.869 58.4691 180.631 58.259 181.319 57.8903C182.007 57.5216 182.603 57.0036 183.065 56.3742L182.786 58.2566H184.812L184.823 58.1606C184.912 57.2438 185.083 56.169 185.32 54.9229L186.93 46.8928H184.708ZM204.473 56.681C204.341 56.7 204.205 56.6881 204.078 56.6464C203.951 56.6046 203.835 56.5342 203.739 56.4404C203.644 56.3467 203.571 56.2321 203.527 56.1057C203.483 55.9794 203.468 55.8445 203.485 55.7116C203.496 55.1201 203.576 54.532 203.724 53.9591L204.755 48.6133H207.532L207.89 46.8947H205.111L205.651 44.1784L205.463 44.2274L203.344 44.8542L202.945 46.8853H201.29L200.953 48.6038H202.611L201.518 54.1135C201.354 54.8074 201.263 55.5165 201.247 56.2293C201.237 56.5216 201.286 56.8129 201.389 57.0865C201.492 57.3601 201.649 57.6106 201.849 57.8236C202.111 58.0634 202.418 58.2474 202.753 58.3645C203.088 58.4817 203.443 58.5295 203.797 58.505C204.33 58.5195 204.862 58.447 205.371 58.2904L205.437 58.266L205.548 56.5474L205.403 56.585C205.104 56.6544 204.797 56.6847 204.49 56.6754M161.437 46.6387C160.536 46.6542 159.65 46.8744 158.847 47.2827C158.044 47.691 157.344 48.2767 156.801 48.9954C155.675 50.3862 155.047 52.1136 155.016 53.9027C154.969 55.0791 155.354 56.232 156.098 57.1441C156.536 57.6081 157.069 57.9707 157.662 58.2061C158.255 58.4416 158.892 58.5443 159.528 58.5069C160.871 58.5161 162.198 58.2112 163.402 57.6166L163.479 57.5846L163.46 57.4998L163.146 55.9318L163.016 55.9958C162.073 56.4933 161.022 56.7518 159.955 56.7488C159.432 56.7622 158.914 56.6424 158.45 56.4006C158.017 56.1536 157.676 55.7732 157.478 55.3163C157.293 54.8178 157.2 54.2896 157.205 53.7577C157.205 53.6053 157.222 53.4679 157.234 53.353C157.363 53.353 157.512 53.353 157.646 53.353C159.397 53.432 161.146 53.1705 162.798 52.5831C163.415 52.3493 163.958 51.9533 164.37 51.4368C164.758 50.9132 164.961 50.2743 164.944 49.6222C164.951 49.2242 164.873 48.8293 164.716 48.4636C164.559 48.0979 164.326 47.7697 164.033 47.5008C163.304 46.8999 162.377 46.5931 161.433 46.6406M162.809 49.673C162.817 50.0214 162.689 50.3593 162.451 50.6142C161.957 51.0582 161.339 51.3418 160.68 51.4274C159.735 51.5966 158.777 51.6729 157.817 51.6551H157.518C157.769 50.8212 158.211 50.0574 158.809 49.4246C159.106 49.0967 159.467 48.8326 159.869 48.6482C160.271 48.4637 160.707 48.3628 161.149 48.3516C161.58 48.33 162.007 48.4503 162.363 48.6942C162.507 48.8038 162.623 48.9465 162.701 49.1103C162.779 49.2741 162.816 49.4542 162.809 49.6354V49.673ZM138.715 51.6984C138.329 52.9129 137.74 54.0534 136.974 55.0716C136.364 54.2208 135.549 53.0349 134.914 52.0053C135.773 51.6482 136.555 51.1314 137.22 50.4824C137.731 49.9602 138.019 49.2606 138.024 48.5304C138.041 47.895 137.805 47.2788 137.367 46.8175C137.114 46.5732 136.813 46.3833 136.483 46.2593C136.154 46.1354 135.803 46.08 135.451 46.0966C135.004 46.0905 134.56 46.1747 134.146 46.3442C133.732 46.5137 133.356 46.7649 133.042 47.0829C132.433 47.7143 132.095 48.5588 132.1 49.4358C132.128 50.1877 132.354 50.9189 132.755 51.5554C131.992 51.9097 131.303 52.4054 130.724 53.0161C130.107 53.6631 129.758 54.52 129.747 55.4142C129.739 55.8159 129.814 56.2149 129.969 56.5857C130.124 56.9565 130.354 57.291 130.645 57.5676C131.336 58.1749 132.235 58.4924 133.154 58.4542C134.406 58.4874 135.626 58.0517 136.573 57.2326C136.81 57.579 137.069 57.9098 137.348 58.2227L137.373 58.2584H139.443L139.289 58.0702C138.715 57.4038 138.248 56.7827 137.808 56.1973C138.971 54.9247 139.839 53.4102 140.347 51.7624L140.396 51.6156H138.749L138.715 51.6984ZM134.197 47.8867C134.33 47.7205 134.499 47.5858 134.69 47.4924C134.881 47.399 135.091 47.3492 135.304 47.3464H135.319C135.48 47.3342 135.642 47.3606 135.791 47.4235C135.94 47.4864 136.072 47.5838 136.176 47.7078C136.351 47.9559 136.441 48.2549 136.43 48.5587C136.429 48.8153 136.376 49.069 136.274 49.3044C136.171 49.5397 136.022 49.7516 135.835 49.9271C135.372 50.3705 134.832 50.7263 134.242 50.9775C133.908 50.4648 133.731 49.8653 133.734 49.2533C133.725 48.7565 133.89 48.2723 134.201 47.8848M133.578 57.0895H133.552C132.99 57.1153 132.441 56.9169 132.025 56.538C131.849 56.359 131.71 56.1461 131.618 55.9122C131.527 55.6783 131.483 55.4282 131.49 55.177C131.499 54.5575 131.748 53.9655 132.185 53.5262C132.544 53.1604 132.95 52.844 133.392 52.585C134.259 53.9798 135.244 55.3257 135.82 56.1389C135.224 56.7367 134.416 57.075 133.572 57.0801M150.986 42.2679C149.579 42.2372 148.203 42.6785 147.076 43.5215C146.558 43.9261 146.14 44.4442 145.853 45.0358C145.567 45.6274 145.42 46.2769 145.424 46.9342C145.425 47.7725 145.731 48.5818 146.284 49.2118C146.961 49.9625 147.776 50.5755 148.686 51.017C149.369 51.3272 149.979 51.7759 150.48 52.3347C150.824 52.7543 151.007 53.2828 150.997 53.8255C151.004 54.2252 150.915 54.6207 150.737 54.9788C150.559 55.3368 150.298 55.6469 149.975 55.8829C149.292 56.3804 148.463 56.6372 147.618 56.6133C146.427 56.6254 145.259 56.2869 144.258 55.6401L144.149 55.5723L144.095 55.6928L143.342 57.3342L143.406 57.385C143.888 57.7486 144.439 58.0111 145.025 58.1568C145.783 58.3699 146.566 58.4831 147.353 58.4937C148.927 58.5601 150.471 58.0546 151.701 57.0707C152.203 56.6379 152.605 56.1003 152.876 55.4957C153.148 54.8911 153.284 54.2342 153.275 53.5714C153.299 52.6817 153.014 51.8112 152.469 51.1074C151.834 50.3565 151.045 49.7505 150.156 49.3304C149.472 49.0068 148.845 48.5746 148.3 48.0504C148.105 47.8523 147.951 47.6168 147.849 47.358C147.747 47.0993 147.698 46.8226 147.705 46.5446C147.712 46.2264 147.788 45.9136 147.928 45.6279C148.069 45.3422 148.269 45.0904 148.516 44.89C149.159 44.3656 149.969 44.092 150.798 44.1201H150.894C151.816 44.1274 152.721 44.378 153.516 44.8467L153.623 44.9069L154.433 43.1469L154.359 43.0961C153.333 42.5154 152.166 42.2301 150.988 42.2716M122.423 46.6406C121.523 46.6565 120.637 46.8768 119.834 47.2847C119.031 47.6926 118.331 48.2775 117.787 48.9954C116.661 50.388 116.032 52.1174 116.002 53.9083C115.954 55.0849 116.339 56.2384 117.085 57.1497C117.521 57.6138 118.054 57.9763 118.645 58.2118C119.237 58.4473 119.873 58.55 120.509 58.5126C121.853 58.5215 123.181 58.2167 124.386 57.6222L124.46 57.5902L124.445 57.5055L124.127 55.9375L124.004 56.0015C123.059 56.4982 122.007 56.7567 120.94 56.7544C120.417 56.7671 119.899 56.6473 119.434 56.4062C118.999 56.1619 118.658 55.7807 118.463 55.322C118.281 54.8227 118.19 54.2947 118.195 53.7634C118.196 53.6282 118.203 53.4931 118.218 53.3587C118.359 53.3587 118.498 53.3587 118.634 53.3587C120.387 53.4368 122.138 53.1754 123.792 52.5888C124.407 52.3539 124.948 51.958 125.358 51.4424C125.752 50.9191 125.958 50.2775 125.941 49.6222C125.949 49.2242 125.871 48.8292 125.714 48.4635C125.557 48.0977 125.324 47.7696 125.03 47.5008C124.301 46.9004 123.374 46.5936 122.431 46.6406M123.805 49.673C123.813 50.0214 123.685 50.3593 123.447 50.6142C122.953 51.0577 122.336 51.3412 121.678 51.4274C120.732 51.5966 119.772 51.6729 118.811 51.6551H118.506C118.756 50.8211 119.197 50.0572 119.795 49.4246C120.092 49.0965 120.453 48.8323 120.855 48.6478C121.257 48.4634 121.693 48.3626 122.135 48.3516C122.567 48.3316 122.995 48.4518 123.353 48.6942C123.497 48.8042 123.612 48.9471 123.689 49.1108C123.766 49.2746 123.802 49.4545 123.795 49.6354L123.805 49.673ZM174.337 46.8137C173.843 46.6987 173.338 46.6406 172.831 46.6406C171.856 46.6353 170.891 46.8347 169.999 47.2257C169.106 47.6168 168.305 48.1908 167.649 48.9107C166.36 50.3292 165.646 52.1764 165.644 54.0928C165.603 55.2416 166.012 56.3611 166.783 57.2137C167.231 57.6567 167.767 58.0009 168.357 58.2242C168.946 58.4476 169.575 58.5452 170.205 58.5107C171.372 58.5288 172.529 58.2891 173.593 57.8086L173.668 57.7766L173.655 57.6975L173.448 56.0486L173.313 56.1126C172.492 56.5128 171.591 56.7219 170.677 56.7243C170.297 56.7482 169.916 56.6912 169.559 56.5573C169.202 56.4233 168.877 56.2153 168.607 55.9469C168.118 55.3594 167.869 54.6093 167.908 53.8462C167.919 52.5099 168.375 51.2152 169.205 50.1681C169.619 49.6351 170.148 49.2033 170.754 48.9055C171.359 48.6077 172.024 48.4517 172.699 48.4495C173.362 48.4423 174.018 48.5818 174.621 48.858L174.724 48.9069L175.376 47.2128L175.293 47.1657C174.985 47.0087 174.659 46.8923 174.322 46.8194" fill="#434343"/>
<path d="M69.9736 19.1793C68.5619 25.1219 66.832 30.3868 57.7383 30.3868C48.6447 30.3868 49.4221 25.1162 50.8357 19.1793C52.3096 12.9976 54.1506 7.98118 63.071 7.98118C71.9915 7.98118 71.4419 12.9976 69.9661 19.1793M64.4772 0C44.2155 0 40.9666 8.58165 38.7209 19.1793C36.639 28.9882 35.4381 38.3642 56.3379 38.3642C77.0739 38.3642 80.0555 28.8226 82.1016 19.1793C84.3473 8.58165 84.3906 0 64.4772 0Z" fill="#434343"/>
<path d="M136.779 1.07841H123.747C123.267 1.08801 122.797 1.21863 122.381 1.45817C121.965 1.69771 121.616 2.03843 121.366 2.44876L109.263 23.2506L106.816 2.65206C106.765 2.21798 106.557 1.81764 106.23 1.52741C105.904 1.23717 105.481 1.07734 105.044 1.07841H92.3216C91.8706 1.08421 91.4341 1.23887 91.0801 1.51836C90.726 1.79784 90.4743 2.18647 90.364 2.62382L82.4807 35.7118C82.4169 35.8968 82.4007 36.0948 82.4335 36.2876C82.4663 36.4805 82.547 36.662 82.6683 36.8155C82.7895 36.969 82.9474 37.0895 83.1275 37.1661C83.3075 37.2426 83.5039 37.2727 83.6985 37.2535H92.188C92.6401 37.2584 93.0803 37.108 93.4349 36.8274C93.7895 36.5468 94.0371 36.153 94.1362 35.7118L98.8214 16.0506C99.019 15.1998 99.2844 15.2149 99.4105 16.077L102.234 35.6855C102.287 36.125 102.502 36.5291 102.837 36.8189C103.172 37.1088 103.602 37.2637 104.045 37.2535H108.583C109.069 37.2756 109.552 37.1593 109.974 36.918C110.397 36.6768 110.742 36.3205 110.97 35.8906L122.705 15.8831C123.149 15.1302 123.339 15.2055 123.139 16.0525L118.46 35.7118C118.396 35.8968 118.379 36.0949 118.412 36.288C118.444 36.4811 118.525 36.6628 118.646 36.8165C118.768 36.9701 118.926 37.0907 119.106 37.1671C119.286 37.2435 119.483 37.2732 119.678 37.2535H128.163C128.614 37.2487 129.05 37.0947 129.403 36.8158C129.757 36.5369 130.008 36.1486 130.117 35.7118L137.997 2.62382C138.054 2.43891 138.064 2.24303 138.029 2.05294C137.993 1.86286 137.912 1.68423 137.792 1.53234C137.673 1.38045 137.518 1.25982 137.342 1.18077C137.165 1.10171 136.972 1.06659 136.779 1.07841Z" fill="#434343"/>
<path d="M218.454 19.6635H207.864L218.452 4.88513L218.454 19.6635ZM193.684 37.2484C194.173 37.2455 194.655 37.1275 195.09 36.9038C195.525 36.6801 195.901 36.3571 196.188 35.9609L202.381 27.319H218.448V35.6654C218.437 35.8763 218.471 36.0873 218.546 36.2845C218.622 36.4818 218.739 36.6609 218.888 36.8102C219.038 36.9595 219.217 37.0757 219.414 37.1512C219.611 37.2267 219.822 37.2598 220.033 37.2484H227.952L223.271 43.2023C222.723 43.8912 222.994 44.4503 223.87 44.4503H236.306C236.798 44.4456 237.281 44.3279 237.719 44.1062C238.158 43.8846 238.539 43.565 238.834 43.1722L254.524 21.9317L259.284 35.8762C259.425 36.3196 259.705 36.7057 260.083 36.9771C260.461 37.2484 260.916 37.3905 261.381 37.3821H271.384C271.568 37.4114 271.757 37.3874 271.928 37.3131C272.099 37.2387 272.245 37.1171 272.349 36.9624C272.454 36.8078 272.511 36.6266 272.516 36.4401C272.521 36.2537 272.472 36.0698 272.376 35.9101L265.133 18.0277L277.02 2.35337C277.552 1.65501 277.264 1.08843 276.391 1.08843H264.956C264.466 1.09251 263.983 1.21022 263.546 1.43232C263.109 1.65442 262.729 1.97485 262.437 2.36843L254.136 13.7567L250.531 2.58866C250.399 2.14556 250.124 1.75824 249.75 1.4862C249.376 1.21415 248.923 1.07243 248.461 1.08278H238.008C237.824 1.05507 237.636 1.07996 237.465 1.1546C237.294 1.22924 237.148 1.35058 237.044 1.50463C236.939 1.65869 236.88 1.83918 236.873 2.02532C236.867 2.21145 236.913 2.39564 237.007 2.55666L243.119 17.992L230.014 34.6395V2.66584C230.025 2.4552 229.992 2.24453 229.917 2.04748C229.841 1.85043 229.726 1.67139 229.577 1.52196C229.428 1.37254 229.249 1.25606 229.052 1.18008C228.856 1.1041 228.645 1.07031 228.434 1.0809H209.012C208.522 1.0849 208.039 1.20319 207.602 1.42635C207.165 1.64952 206.786 1.97143 206.496 2.36654L184.749 32.4729L191.862 2.62254C191.919 2.43772 191.93 2.24191 191.894 2.05189C191.859 1.86187 191.778 1.68331 191.658 1.53154C191.538 1.37977 191.383 1.25932 191.207 1.1805C191.03 1.10168 190.837 1.06686 190.644 1.07901H177.609C177.128 1.08852 176.657 1.21949 176.241 1.45974C175.824 1.69999 175.475 2.04172 175.226 2.45313L163.128 23.2512L160.681 2.65643C160.63 2.22137 160.421 1.82027 160.093 1.52967C159.765 1.23907 159.342 1.07932 158.904 1.0809H146.181C145.732 1.08823 145.297 1.24338 144.945 1.52237C144.592 1.80135 144.341 2.18865 144.231 2.62443L136.346 35.7162C136.283 35.9014 136.268 36.0994 136.302 36.292C136.335 36.4846 136.417 36.6657 136.538 36.8187C136.66 36.9717 136.818 37.0917 136.998 37.1678C137.179 37.2439 137.375 37.2735 137.569 37.2541H146.055C146.507 37.2593 146.947 37.1095 147.302 36.8297C147.657 36.5498 147.905 36.1568 148.005 35.7162L152.681 16.0531C152.882 15.1985 153.148 15.2155 153.276 16.0795L156.099 35.688C156.15 36.1277 156.364 36.5325 156.699 36.8226C157.033 37.1128 157.464 37.2674 157.906 37.256H162.437C162.923 37.2792 163.406 37.1631 163.829 36.9213C164.251 36.6795 164.596 36.3222 164.822 35.8912L176.566 15.8837C177.008 15.1308 177.2 15.208 177.003 16.0569L172.32 35.7162C172.256 35.9008 172.24 36.0983 172.273 36.2907C172.306 36.483 172.387 36.6641 172.508 36.8172C172.629 36.9702 172.786 37.0905 172.966 37.1668C173.145 37.2432 173.341 37.2732 173.536 37.2541L193.684 37.2484Z" fill="#434343"/>
<path d="M33.0572 28.896C30.6365 28.992 26.1377 29.1331 23.045 29.0974C17.8911 29.0315 14.5443 27.3637 13.445 24.975C12.801 23.0987 12.7799 21.0647 13.3847 19.1755C13.8068 17.0416 14.7995 15.0621 16.2572 13.4475C18.4953 11.1623 22.2939 9.67337 27.6868 9.4456C31.1146 9.30631 35.5306 9.48137 37.8516 9.59807C38.2357 9.6391 38.6211 9.53352 38.9308 9.30245C39.2404 9.07138 39.4512 8.73189 39.5212 8.35195L40.8746 2.67101C40.9272 2.50096 40.9417 2.32143 40.9172 2.14513C40.8927 1.96884 40.8297 1.80009 40.7327 1.65084C40.6357 1.50159 40.5071 1.37549 40.356 1.28147C40.2048 1.18745 40.0349 1.12781 39.8581 1.10678C34.8669 0.453294 29.8269 0.251064 24.7993 0.502542C19.4922 0.681578 14.3416 2.34518 9.9325 5.30442C5.37267 8.67516 2.19308 13.588 0.985672 19.1284C0.273224 21.4595 0.129593 23.9272 0.566802 26.3252C1.00401 28.7231 2.00934 30.9814 3.49861 32.911C6.17344 35.968 10.3579 37.6489 15.8657 38.1138C20.9386 38.3603 26.0234 38.148 31.0581 37.4795C31.4568 37.4145 31.8268 37.2317 32.1207 36.9546C32.4146 36.6775 32.6188 36.3188 32.7071 35.9247L34.0963 30.1665C34.146 30.0111 34.1561 29.8457 34.1255 29.6854C34.0949 29.5251 34.0247 29.375 33.9212 29.2488C33.8176 29.1227 33.6842 29.0244 33.5329 28.9631C33.3817 28.9018 33.2175 28.8794 33.0553 28.8978" fill="#434343"/>
</g>
</g>
</svg>
