<svg width="371" height="64" viewBox="0 0 371 64" fill="none" xmlns="http://www.w3.org/2000/svg">
<path d="M19.601 1.98838C6.91804 6.37932 0.0824415 16.6525 0.164798 31.4822C0.164798 43.3295 4.69441 52.6084 13.3419 58.325C20.2598 62.9644 23.4717 63.4615 44.9668 63.213L64.2382 62.9644V57.1651V51.3657L44.8844 50.9515C23.4717 50.4544 21.4952 50.0402 17.1303 44.8207C13.9183 41.0097 12.7654 37.5301 12.7654 31.8965C12.7654 26.18 14.3301 21.789 17.542 18.3923C22.154 13.5042 22.9776 13.2557 44.4726 12.8415L64.2382 12.4272L64.4853 6.37932L64.7324 0.414271H44.3079C26.8483 0.497119 23.2246 0.662815 19.601 1.98838Z" fill="#434343"/>
<path d="M70.0855 1.07696C69.8384 1.4912 76.7564 10.1074 85.4862 20.3805L101.299 38.9384L101.71 50.9514L102.122 62.9643L108.134 63.2129L114.064 63.4614V51.8627V40.1812L130.453 20.9605C139.512 10.3559 146.677 1.40835 146.512 1.07696C146.265 0.662717 142.806 0.414173 138.853 0.414173H131.606L121.641 12.3443C116.123 18.8064 110.934 25.02 110.111 26.097L108.628 27.9197L97.1808 14.1669L85.6509 0.414173H78.0741C73.9563 0.414173 70.3326 0.745565 70.0855 1.07696Z" fill="#434343"/>
<path d="M153.759 31.6479L154.007 62.9644H181.267H208.527L212.48 60.4789C217.833 57.165 221.127 51.0343 221.127 44.4893C221.127 39.1042 218.821 33.5534 215.692 31.4822L213.55 30.0737L215.362 28.831C216.35 28.0854 217.915 26.0142 218.739 24.1087C223.021 14.5812 218.08 4.0595 208.032 1.24268C206.385 0.745588 194.032 0.414196 179.29 0.414196H153.595L153.759 31.6479ZM205.397 14.8297C207.209 16.4867 207.785 21.2919 206.468 23.4459C205.15 25.4343 200.044 26.097 186.373 26.097H172.537V31.4822V36.8673H187.773C204.162 36.8673 206.468 37.3644 207.95 41.0097C209.432 44.655 208.197 47.6375 204.326 49.3773C201.362 50.7029 198.726 50.9514 183.49 50.9514H165.948V31.8135V12.7585L184.808 13.0071C202.02 13.2556 203.832 13.4213 205.397 14.8297Z" fill="#434343"/>
<path d="M231.175 31.6479L231.423 62.9644H259.424H287.425V57.165V51.3657L265.436 51.1171L243.364 50.9514V31.8964V12.8414L265.436 12.6757L287.425 12.4271V6.62779V0.828436L259.177 0.579892L231.011 0.414196L231.175 31.6479Z" fill="#434343"/>
<path d="M297.307 1.49104C297.06 1.98812 296.978 16.0723 297.06 32.7247L297.307 62.9642H303.484H309.661L309.908 37.8613L310.073 12.8412H327.367C347.298 12.8412 349.686 13.3383 351.663 18.1435C354.216 24.3571 352.239 31.1506 347.133 33.7189C344.745 34.9616 341.945 35.2101 330.003 35.2101H315.755L316.002 40.7609L316.249 46.3946L327.862 46.6431L339.474 46.8917L346.804 55.0936L354.133 63.3784H362.122C366.487 63.3784 370.275 63.047 370.522 62.7156C370.769 62.3014 367.063 58.159 362.369 53.4367L353.886 44.9033L358.251 40.6781C363.769 35.3758 365.746 29.6593 365.004 20.9603C364.181 11.2671 359.404 4.55641 351.333 1.65673C346.556 -0.000226058 297.884 -0.24877 297.307 1.49104Z" fill="#434343"/>
<path d="M249.458 27.257C249.211 27.8369 249.129 30.1567 249.294 32.3936L249.541 36.4531H267.247H284.954L285.201 31.2337L285.448 26.0971H267.659C253.329 26.0971 249.788 26.3457 249.458 27.257Z" fill="#434343"/>
</svg>
