<svg width="354" height="64" viewBox="0 0 354 64" fill="none" xmlns="http://www.w3.org/2000/svg">
<g clip-path="url(#clip0_46_797)">
<path d="M125.007 39.111L110.581 4.44432C109.58 2.13321 107.402 0.533203 104.811 0.533203C102.043 0.533203 99.8058 2.25172 98.8048 4.62209L83.6721 41.0073H93.4466L104.634 11.4962L109.639 25.1258H104.575V33.0665H112.701L115.998 40.948H125.007V39.111ZM125.007 9.42209H124.183V1.54062H125.007V9.42209ZM62.6511 33.0665C67.3028 33.0665 70.0703 31.8813 71.4835 29.2147C72.6022 27.2591 73.3677 24.711 73.3677 20.9184C73.3677 12.2665 70.3647 9.36283 62.9455 9.36283H46.7529V1.54062H63.8877C69.4815 1.54062 73.5444 2.90357 76.3118 5.21468C80.3158 8.47394 82.5533 14.1628 82.5533 21.6888C82.5533 29.3925 80.3158 34.7851 76.3118 37.9258C73.8388 39.8814 70.6591 40.948 66.5374 41.0665H64.2998L46.7529 40.8888V21.2147H55.1142V33.0665H62.6511ZM195.961 1.48135V24.1184C195.961 31.0517 196.608 34.1332 198.787 36.8591C201.319 40.0591 205.087 40.8888 210.976 40.8888H213.92H218.218V33.0073H214.862C209.327 33.0073 207.619 32.711 206.206 31.348C204.027 29.3925 204.44 26.9036 204.145 24.1184V1.48135H195.961ZM179.179 4.44432L194.43 41.0073H184.596L181.476 33.1258H173.409V25.1851H178.414L173.409 11.5554L162.162 41.0665H152.447L167.462 4.68135C168.463 2.31098 170.818 0.592466 173.468 0.592466C176.058 0.473947 178.296 2.13321 179.179 4.44432ZM125.007 9.42209H129.895V24.1776C129.895 31.111 130.484 33.7184 132.839 36.3851C135.312 39.4665 139.08 41.0073 145.027 41.0073H147.854H149.09V33.1258H148.796C143.379 33.1258 141.612 32.8295 140.14 31.4665C137.903 29.4517 138.197 27.0221 138.197 24.2369V9.48135H148.443V1.59988H125.007V9.42209ZM125.007 40.948V39.111L125.773 40.948H125.007ZM240.24 0.948025V7.58505C233.115 7.64431 230.053 12.3851 230.053 21.6295C229.995 30.9332 233.233 35.0221 240.24 35.0221V41.6591C235.058 41.5999 230.171 40.2369 227.05 37.8073C223.046 34.9036 220.809 29.0962 220.809 21.9258C220.809 8.29617 227.05 0.888762 240.181 0.888762H240.24V0.948025ZM291.88 33.0665H285.462C280.869 33.0665 278.101 32.5332 276.688 29.8073C275.51 27.7925 274.863 24.948 274.863 21.1554C274.863 12.4443 277.807 9.36283 285.167 9.36283H293.116V1.48135H284.225C278.749 1.48135 274.568 3.08135 271.742 5.33321C267.738 8.47395 265.677 14.3406 265.677 21.8073C265.677 29.4517 267.738 34.6073 271.742 37.8073C274.274 39.7628 277.512 40.711 281.693 40.948H283.872H295.472C298.769 40.948 301.478 38.2221 301.478 34.9628V21.2147H293.175V31.8813C293.116 32.5332 292.586 33.0665 291.88 33.0665ZM307.778 40.948H316.198V1.48135H307.778V40.948ZM353.412 33.0665H341.341C336.748 33.0665 333.863 32.5332 332.567 29.8073C331.331 27.6147 330.742 24.1184 330.742 20.2073C330.742 14.6962 331.802 12.4443 334.452 10.6665C336.1 9.54061 338.161 9.30358 341.046 9.30358H353.412V1.48135H340.104C333.863 1.48135 329.388 2.66654 326.738 5.33321C323.205 9.00728 321.439 14.2221 321.439 21.0369C321.439 30.8739 324.972 37.4517 331.331 39.6443C334.157 40.5925 334.923 40.948 339.751 40.948H353.412V33.0665ZM240.24 41.7184V35.0814C247.188 35.0814 250.368 30.9925 250.368 21.6295C250.368 12.5628 247.07 7.64431 240.24 7.64431V1.00729C253.253 1.00729 259.553 8.47395 259.553 22.2814C259.553 35.0814 253.194 41.7777 240.77 41.7777H240.24V41.7184Z" fill="#434343"/>
<path d="M20.6681 1.30371C30.7369 1.77778 38.9216 9.95555 39.3926 20.0889C34.5054 20.0889 27.3806 19.7333 23.9655 17.4815C21.198 15.6444 20.6681 5.15556 20.6681 1.30371ZM0.118164 20.0889C0.589222 9.95555 8.77385 1.77778 18.8427 1.30371C18.8427 5.15556 18.3717 15.6444 15.4864 17.4815C12.1301 19.7333 5.00539 20.0889 0.118164 20.0889ZM18.9016 40.8296C8.83274 40.4148 0.648103 32.237 0.177045 22.1037C5.06427 22.1037 12.189 22.4 15.6042 24.6519C18.3717 26.6074 18.9016 37.037 18.9016 40.8296ZM39.4515 22.1037C38.9805 32.237 30.7958 40.4148 20.727 40.8296C20.727 37.037 21.198 26.5481 24.0832 24.6519C27.4395 22.4 34.5643 22.1037 39.4515 22.1037Z" fill="#434343"/>
<path d="M193.723 51.8521V53.8669H190.308V63.2891H187.894V53.8669H184.479V51.8521H193.723Z" fill="#7C7E7F"/>
<path d="M195.077 63.2891V51.8521H197.432V56.2372H201.849V51.8521H204.204V63.2891H201.849V58.1928H197.432V63.2891H195.077Z" fill="#7C7E7F"/>
<path d="M214.92 53.8669H208.914V56.2965H214.449V58.3113H208.914V61.2743H215.214V63.2891H206.559V51.8521H214.92V53.8669Z" fill="#7C7E7F"/>
<path d="M228.11 51.8521H230.583L226.697 63.2891H224.459L220.632 51.8521H223.164L225.637 60.5632L228.11 51.8521Z" fill="#7C7E7F"/>
<path d="M234.175 51.8521H231.819V63.2891H234.175V51.8521Z" fill="#7C7E7F"/>
<path d="M238.12 59.7331C238.178 60.2665 238.355 60.622 238.532 60.9183C238.944 61.3924 239.592 61.6294 240.534 61.6294C241.123 61.6294 241.594 61.5702 241.947 61.4517C242.595 61.2146 242.948 60.7405 242.948 60.1479C242.948 59.7924 242.771 59.4961 242.418 59.2591C242.065 59.0813 241.535 58.9035 240.828 58.7257L239.592 58.4294C238.355 58.1331 237.531 57.8368 237.119 57.5405C236.353 57.0072 235.941 56.1776 235.941 55.0516C235.941 54.0442 236.294 53.1554 237.06 52.5035C237.825 51.8517 238.885 51.4961 240.357 51.4961C241.594 51.4961 242.595 51.7924 243.478 52.4442C244.361 53.0961 244.773 53.985 244.832 55.2294H242.536C242.477 54.5183 242.182 54.0443 241.594 53.748C241.181 53.5702 240.71 53.4517 240.18 53.4517C239.533 53.4517 239.062 53.5702 238.649 53.8072C238.296 54.0442 238.12 54.3998 238.12 54.8739C238.12 55.2887 238.296 55.585 238.649 55.822C238.885 55.9405 239.415 56.1183 240.18 56.2961L242.182 56.7702C243.066 57.0072 243.713 57.2443 244.126 57.5998C244.832 58.1331 245.127 58.9035 245.127 59.9109C245.127 60.9776 244.714 61.8072 243.89 62.5183C243.066 63.2294 241.947 63.585 240.475 63.585C239.003 63.585 237.825 63.2294 236.942 62.5776C236.059 61.9257 235.646 60.9776 235.646 59.7924H238.12V59.7331Z" fill="#7C7E7F"/>
<path d="M249.131 51.8521H246.775V63.2891H249.131V51.8521Z" fill="#7C7E7F"/>
<path d="M258.611 60.563C259.141 59.8518 259.435 58.8444 259.435 57.6C259.435 56.2963 259.141 55.2889 258.611 54.637C258.081 53.9259 257.315 53.5703 256.373 53.5703C255.431 53.5703 254.666 53.9259 254.136 54.637C253.606 55.3481 253.311 56.3555 253.311 57.6C253.311 58.9037 253.606 59.8518 254.136 60.563C254.725 61.2741 255.431 61.6296 256.373 61.6296C257.315 61.6296 258.081 61.2741 258.611 60.563ZM260.083 62.2815C259.2 63.1704 257.963 63.6444 256.373 63.6444C254.725 63.6444 253.488 63.1704 252.664 62.2815C251.486 61.2148 250.956 59.6148 250.956 57.5407C250.956 55.4667 251.545 53.8667 252.664 52.8C253.547 51.9111 254.783 51.437 256.373 51.437C258.022 51.437 259.258 51.8518 260.083 52.8C261.26 53.8667 261.79 55.4074 261.79 57.5407C261.849 59.6148 261.26 61.2148 260.083 62.2815Z" fill="#7C7E7F"/>
<path d="M263.616 51.8521H266.089L270.623 59.8521V51.8521H272.861V63.2891H270.447L265.854 55.1706V63.2891H263.616V51.8521Z" fill="#7C7E7F"/>
<path d="M281.634 51.8521H279.278V63.2891H281.634V51.8521Z" fill="#7C7E7F"/>
<path d="M285.579 59.7331C285.638 60.2665 285.814 60.622 285.991 60.9183C286.403 61.3924 287.051 61.6294 287.993 61.6294C288.582 61.6294 289.053 61.5702 289.406 61.4517C290.054 61.2146 290.407 60.7405 290.407 60.1479C290.407 59.7924 290.231 59.4961 289.936 59.2591C289.583 59.0813 289.053 58.9035 288.346 58.7257L287.11 58.4294C285.873 58.1331 285.049 57.8368 284.637 57.5405C283.871 57.0072 283.518 56.1776 283.518 55.0516C283.518 54.0442 283.871 53.1554 284.637 52.5035C285.402 51.8517 286.462 51.4961 287.934 51.4961C289.171 51.4961 290.172 51.7924 291.055 52.4442C291.938 53.0961 292.35 53.985 292.409 55.2294H290.113C290.054 54.5183 289.76 54.0443 289.171 53.748C288.759 53.5702 288.288 53.4517 287.758 53.4517C287.11 53.4517 286.639 53.5702 286.227 53.8072C285.873 54.0442 285.638 54.3998 285.638 54.8739C285.638 55.2887 285.814 55.585 286.227 55.822C286.462 55.9405 286.933 56.1183 287.758 56.2961L289.76 56.7702C290.643 57.0072 291.291 57.2443 291.703 57.5998C292.409 58.1331 292.704 58.9035 292.704 59.9109C292.704 60.9776 292.292 61.8072 291.467 62.5183C290.643 63.2294 289.524 63.585 288.052 63.585C286.58 63.585 285.402 63.2294 284.519 62.5776C283.636 61.9257 283.224 60.9776 283.224 59.7924H285.579V59.7331Z" fill="#7C7E7F"/>
<path d="M305.01 51.8521H307.719L303.891 59.0224V63.2891H301.536V59.0224L297.591 51.8521H300.417L302.772 56.8298L305.01 51.8521Z" fill="#7C7E7F"/>
<path d="M316.375 60.563C316.905 59.8518 317.199 58.8444 317.199 57.6C317.199 56.2963 316.905 55.2889 316.375 54.637C315.845 53.9259 315.079 53.5703 314.137 53.5703C313.195 53.5703 312.43 53.9259 311.9 54.637C311.37 55.3481 311.075 56.3555 311.075 57.6C311.075 58.9037 311.37 59.8518 311.9 60.563C312.488 61.2741 313.195 61.6296 314.137 61.6296C315.079 61.5704 315.786 61.2741 316.375 60.563ZM317.847 62.2815C316.964 63.1704 315.727 63.6444 314.137 63.6444C312.488 63.6444 311.252 63.1704 310.428 62.2815C309.25 61.2148 308.661 59.6148 308.661 57.5407C308.661 55.4667 309.25 53.8667 310.428 52.8C311.252 51.9111 312.547 51.437 314.137 51.437C315.786 51.437 317.022 51.8518 317.847 52.8C318.966 53.8667 319.554 55.4074 319.554 57.5407C319.554 59.6148 318.966 61.2148 317.847 62.2815Z" fill="#7C7E7F"/>
<path d="M321.38 51.8521H323.794V58.9039C323.794 59.6743 323.912 60.2669 324.088 60.6224C324.383 61.2743 324.972 61.5706 325.973 61.5706C326.915 61.5706 327.563 61.2743 327.857 60.6224C328.034 60.2669 328.151 59.6743 328.151 58.9039V51.8521H330.566V58.9039C330.566 60.0891 330.389 61.0372 330.036 61.7484C329.329 62.9928 327.975 63.6446 326.032 63.6446C324.088 63.6446 322.734 62.9928 322.028 61.7484C321.674 61.0965 321.498 60.1483 321.498 58.9039V51.8521H321.38Z" fill="#7C7E7F"/>
<path d="M335.217 53.8076V56.8891H337.749C338.278 56.8891 338.632 56.8298 338.926 56.7113C339.338 56.4743 339.574 56.0595 339.574 55.4076C339.574 54.6965 339.338 54.2224 338.926 54.0447C338.691 53.9261 338.337 53.8669 337.807 53.8669H335.217V53.8076ZM340.104 52.1483C340.516 52.3261 340.869 52.6224 341.164 52.978C341.399 53.2743 341.576 53.5706 341.753 53.9261C341.87 54.2817 341.988 54.6965 341.988 55.1113C341.988 55.6446 341.87 56.178 341.576 56.7113C341.281 57.2447 340.869 57.6002 340.222 57.8372C340.752 58.0743 341.105 58.3706 341.34 58.7261C341.576 59.1409 341.694 59.7335 341.694 60.5039V61.2743C341.694 61.8076 341.694 62.1632 341.753 62.3409C341.811 62.6372 341.929 62.8743 342.165 62.9928V63.2891H339.515C339.456 63.052 339.397 62.815 339.338 62.6965C339.279 62.4002 339.221 62.0446 339.221 61.6891V60.6224C339.221 59.9113 339.103 59.4372 338.867 59.1409C338.632 58.9039 338.161 58.7854 337.513 58.7854H335.217V63.2891H332.861V51.8521H338.279C339.103 51.8521 339.692 51.9706 340.104 52.1483Z" fill="#7C7E7F"/>
<path d="M345.934 59.7331C345.993 60.2665 346.17 60.622 346.346 60.9183C346.758 61.3924 347.406 61.6294 348.348 61.6294C348.937 61.6294 349.408 61.5702 349.761 61.4517C350.468 61.2146 350.762 60.7405 350.762 60.1479C350.762 59.7924 350.586 59.4961 350.232 59.2591C349.879 59.0813 349.349 58.9035 348.643 58.7257L347.406 58.4294C346.17 58.1331 345.345 57.8368 344.933 57.5405C344.168 57.0072 343.755 56.1776 343.755 55.0516C343.755 54.0442 344.109 53.1554 344.874 52.5035C345.64 51.8517 346.699 51.4961 348.172 51.4961C349.408 51.4961 350.409 51.7924 351.292 52.4442C352.176 53.0961 352.588 53.985 352.647 55.2294H350.35C350.291 54.5183 349.997 54.0443 349.408 53.748C349.055 53.5702 348.584 53.4517 347.995 53.4517C347.347 53.4517 346.876 53.5702 346.464 53.8072C346.111 54.0442 345.875 54.3998 345.875 54.8739C345.875 55.2887 346.052 55.585 346.405 55.822C346.641 55.9405 347.171 56.1183 347.936 56.2961L349.938 56.7702C350.821 57.0072 351.469 57.2443 351.881 57.5998C352.588 58.1331 352.882 58.9035 352.882 59.9109C352.882 60.9776 352.47 61.8072 351.704 62.5183C350.88 63.2294 349.761 63.585 348.289 63.585C346.758 63.585 345.64 63.2294 344.756 62.5776C343.873 61.9257 343.461 60.9776 343.461 59.7924H345.934V59.7331Z" fill="#7C7E7F"/>
</g>
<defs>
<clipPath id="clip0_46_797">
<rect width="353.882" height="64" fill="white"/>
</clipPath>
</defs>
</svg>
