<svg width="255" height="64" viewBox="0 0 255 64" fill="none" xmlns="http://www.w3.org/2000/svg">
<path d="M67.1069 11.3713C66.0948 5.12017 58.4743 1.36947 49.4101 3.1704C43.9854 4.36625 39.0779 7.2472 35.3896 11.4011C39.5009 11.7735 43.4089 13.3587 46.6179 15.9556C49.8269 18.5524 52.1922 22.0439 53.4138 25.9871C64.3087 23.8737 68.0594 18.3816 67.1069 11.3713Z" fill="#434343"/>
<path d="M44.6472 26.7904H45.2425C44.1151 24.2327 42.1659 22.1247 39.7042 20.8008C37.2425 19.4769 34.4091 19.013 31.6537 19.4825C31.6311 19.7698 31.6311 20.0585 31.6537 20.3458C32.5914 25.1235 37.89 26.7904 44.6472 26.7904Z" fill="#434343"/>
<path d="M33.6193 17.8601C36.451 17.8667 39.216 18.7207 41.5582 20.3123C43.9004 21.9038 45.7127 24.16 46.7616 26.7903C48.3988 26.7159 50.0955 26.5522 51.822 26.3289H51.956C50.7495 22.5399 48.3988 19.2176 45.2272 16.8189C42.0556 14.4202 38.2188 13.0629 34.2444 12.9336C33.0524 14.4498 32.2043 16.2069 31.7588 18.0834C32.3738 17.9713 32.9951 17.8967 33.6193 17.8601Z" fill="#434343"/>
<path d="M22.6342 37.2095H22.0537C23.063 39.4296 24.6903 41.3121 26.7412 42.6318C28.792 43.9516 31.1796 44.6527 33.6184 44.6513C34.32 44.6679 35.0217 44.628 35.717 44.5323C35.715 44.2479 35.6901 43.9642 35.6425 43.6839C34.6453 38.8764 29.3467 37.2095 22.6342 37.2095Z" fill="#434343"/>
<path d="M33.619 46.1397C30.7872 46.1331 28.0222 45.2791 25.68 43.6876C23.3378 42.096 21.5256 39.8398 20.4766 37.2095C18.8394 37.2839 17.1427 37.4327 15.4311 37.656H15.2822C16.4888 41.4451 18.8394 44.7673 22.011 47.166C25.1826 49.5647 29.0194 50.922 32.9939 51.0513C34.1887 49.535 35.0417 47.7783 35.4943 45.9016C34.8736 45.9967 34.2469 46.0464 33.619 46.0504" fill="#434343"/>
<path d="M13.8381 38.0273C2.97296 40.1855 -0.82239 45.6329 0.145052 52.6432C1.14226 58.8943 8.76273 62.645 17.8269 60.8292C23.252 59.6432 28.161 56.7666 31.8474 52.6134C27.7337 52.2537 23.8214 50.6729 20.6125 48.074C17.4036 45.475 15.0446 41.9765 13.8381 38.0273Z" fill="#434343"/>
<path d="M28.2754 20.4951C26.0823 21.5146 24.2255 23.1387 22.9231 25.1766C21.6208 27.2145 20.9269 29.5817 20.9229 32.0002C20.9295 32.6885 20.9892 33.3751 21.1015 34.0542C22.4479 33.7557 23.6695 33.0488 24.5991 32.03C26.6084 29.9165 27.8587 25.3919 28.2754 20.4951Z" fill="#434343"/>
<path d="M19.4489 31.9995C19.4565 29.1661 20.3108 26.3997 21.902 24.0553C23.4932 21.7109 25.7488 19.8956 28.3791 18.8423C28.449 17.0806 28.4142 15.3162 28.2749 13.5586C24.2777 14.7158 20.7642 17.1393 18.2627 20.4649C15.7611 23.7904 14.4068 27.8382 14.4033 31.9995C14.4033 32.0739 14.4033 32.1484 14.4033 32.2377C15.9153 33.3743 17.7252 34.0466 19.6126 34.1725C19.5 33.4535 19.4403 32.7273 19.434 31.9995" fill="#434343"/>
<path d="M28.1569 12.0558C27.9471 9.34267 27.1389 6.70969 25.7904 4.34605C25.0254 3.0651 23.9517 1.99622 22.6674 1.23704C21.383 0.477851 19.9289 0.0525576 18.4378 0C15.4164 0 12.0974 1.68186 8.92714 5.2093C2.67598 12.0856 5.53365 21.2391 9.55226 27.133C10.5168 28.5957 11.6619 29.9309 12.9606 31.107C13.158 26.7338 14.7345 22.5353 17.4643 19.1131C20.1941 15.6908 23.937 13.2204 28.1569 12.0558Z" fill="#434343"/>
<path d="M39.0967 51.9442C39.2874 54.661 40.0969 57.2981 41.4632 59.654C42.2281 60.9349 43.3018 62.0038 44.5862 62.763C45.8706 63.5222 47.3247 63.9475 48.8157 64C51.7925 64 55.1413 62.3033 58.3711 58.7759C64.6371 51.9145 61.7795 42.7461 57.7609 36.8521C56.768 35.3936 55.5982 34.0637 54.2781 32.8931C54.0862 37.2656 52.5135 41.4649 49.7859 44.8878C47.0583 48.3107 43.3161 50.7811 39.0967 51.9442Z" fill="#434343"/>
<path d="M38.9778 43.5046C41.1709 42.4851 43.0277 40.8611 44.33 38.8231C45.6324 36.7852 46.3263 34.418 46.3303 31.9995C46.3183 31.3159 46.2536 30.6342 46.1368 29.9604C44.7913 30.2506 43.5722 30.9591 42.6541 31.9846C40.6448 34.0981 39.3945 38.6228 38.9629 43.5046" fill="#434343"/>
<path d="M47.8025 32.0001C47.8009 34.8349 46.949 37.604 45.357 39.9496C43.7651 42.2951 41.5061 44.1092 38.8722 45.1573C38.785 46.9233 38.8098 48.6931 38.9467 50.456C42.9466 49.2964 46.4625 46.8707 48.9664 43.5428C51.4703 40.215 52.8271 36.1647 52.8332 32.0001V31.7769C51.3243 30.6233 49.5166 29.926 47.6239 29.7676C47.748 30.4854 47.8127 31.2122 47.8174 31.9406" fill="#434343"/>
<path d="M122.474 13.2763H145.618C145.678 13.2782 145.736 13.2969 145.785 13.3305C145.834 13.364 145.873 13.4109 145.896 13.4656C145.92 13.5203 145.927 13.5806 145.917 13.6394C145.908 13.6981 145.881 13.7529 145.842 13.7973C145.842 13.7973 130.809 28.0707 122.772 36.1228C121.284 37.6112 121.775 39.9926 123.799 39.9926H155.977V35.8103H132.774C132.714 35.8125 132.655 35.7967 132.605 35.7651C132.554 35.7335 132.515 35.6875 132.491 35.633C132.467 35.5785 132.459 35.518 132.47 35.4594C132.481 35.4008 132.509 35.3467 132.551 35.3042L155.65 12.9787C157.138 11.4903 156.647 9.10889 154.638 9.10889H122.474V13.2763Z" fill="#434343"/>
<path d="M210.78 13.2763H233.924C233.984 13.2782 234.041 13.2969 234.091 13.3305C234.14 13.364 234.178 13.4109 234.202 13.4656C234.225 13.5203 234.233 13.5806 234.223 13.6394C234.213 13.6981 234.187 13.7529 234.147 13.7973C234.147 13.7973 219.115 28.0707 211.078 36.1228C209.589 37.6112 210.08 39.9926 212.105 39.9926H244.283V35.8103H221.079C221.02 35.8125 220.961 35.7967 220.911 35.7651C220.86 35.7335 220.82 35.6875 220.796 35.633C220.772 35.5785 220.765 35.518 220.776 35.4594C220.786 35.4008 220.814 35.3467 220.856 35.3042L243.956 12.9787C245.444 11.4903 244.953 9.10889 242.944 9.10889H210.78V13.2763Z" fill="#434343"/>
<path d="M201 9.15332H199.69V39.9329H201H205.242H206.18V9.15332H205.242H201Z" fill="#434343"/>
<path d="M118.59 22.3701H94.1953V26.3441H118.59V22.3701Z" fill="#434343"/>
<path d="M91.3231 18.4408C91.2791 17.7651 91.377 17.0876 91.6106 16.452C91.8441 15.8165 92.2081 15.2368 92.6792 14.7503C93.1502 14.2639 93.7178 13.8814 94.3456 13.6275C94.9733 13.3736 95.6472 13.2539 96.324 13.2761H119.066V9.15332H93.6598C86.218 9.15332 83.2412 14.3626 83.2412 19.1701V29.9161C83.2412 34.7236 86.218 39.9329 93.6598 39.9329H119.066V35.8249H96.324C95.6472 35.8471 94.9733 35.7274 94.3456 35.4736C93.7178 35.2197 93.1502 34.8372 92.6792 34.3507C92.2081 33.8643 91.8441 33.2846 91.6106 32.649C91.377 32.0134 91.2791 31.336 91.3231 30.6603V18.4408Z" fill="#434343"/>
<path d="M190.046 9.15332L177.752 31.8361C177.731 31.8687 177.703 31.8954 177.669 31.9137C177.635 31.9319 177.597 31.9411 177.558 31.9403C177.521 31.9436 177.484 31.9353 177.452 31.9167C177.42 31.898 177.395 31.8699 177.38 31.8361L165.071 9.15332H157.629L174.224 38.9208C174.405 39.2469 174.671 39.5185 174.993 39.707C175.315 39.8955 175.682 39.9941 176.055 39.9924H179.032C179.403 39.9962 179.769 39.8984 180.089 39.7095C180.409 39.5206 180.671 39.2479 180.848 38.9208L197.458 9.15332H190.046Z" fill="#434343"/>
<path d="M249.551 9.77867H248.405V13.2317H247.572V9.77867H246.426V9.13867H249.551V9.77867Z" fill="#434343"/>
<path d="M251.084 9.13867L252.126 12.1601H252.141L253.198 9.13867H254.269V13.2317H253.451V12.0112L253.525 10.2103H253.51L252.409 13.2317H251.858L250.772 10.2103H250.757L250.831 12.0112V13.2317H250.013V9.13867H251.084Z" fill="#434343"/>
<path d="M91.5748 55.0702C91.561 55.4768 91.467 55.8767 91.2985 56.247C91.1299 56.6173 90.89 56.9508 90.5925 57.2283C89.9569 57.784 89.1283 58.0673 88.2855 58.0172C87.8185 58.0394 87.3527 57.9512 86.926 57.7599C86.4994 57.5685 86.1238 57.2793 85.8297 56.9158C85.1786 56.1097 84.8451 55.0932 84.8921 54.0581V52.5697C84.8492 51.5352 85.1823 50.5201 85.8297 49.712C86.1291 49.3546 86.5056 49.0698 86.931 48.879C87.3564 48.6882 87.8195 48.5965 88.2855 48.6106C89.1298 48.5634 89.9603 48.8403 90.6074 49.3846C91.2037 49.9531 91.5514 50.7341 91.5748 51.5576H90.8753C90.8213 50.9035 90.5426 50.2882 90.0865 49.8162C89.593 49.3898 88.951 49.1758 88.3004 49.2209C87.9302 49.2115 87.563 49.2903 87.2292 49.4508C86.8953 49.6112 86.6044 49.8487 86.3804 50.1437C85.871 50.8301 85.6135 51.6711 85.6511 52.5251V54.0134C85.581 54.8805 85.8181 55.7445 86.3209 56.4544C86.5449 56.7493 86.8358 56.9868 87.1696 57.1473C87.5034 57.3077 87.8706 57.3865 88.2409 57.3772C88.8929 57.4178 89.5362 57.2104 90.0418 56.7967C90.5082 56.3329 90.8022 55.7238 90.8753 55.0702H91.5748Z" fill="#434343"/>
<path d="M96.442 51.7356H95.8913C95.4702 51.7199 95.0578 51.8574 94.7304 52.1226C94.4084 52.4173 94.1806 52.8004 94.0755 53.224V57.9124H93.3164V51.0956H93.9862L94.0755 52.2268C94.2497 51.837 94.5214 51.4987 94.8643 51.2445C95.208 51.0027 95.6201 50.8775 96.0401 50.8872H96.3229H96.5462L96.442 51.7356Z" fill="#434343"/>
<path d="M100.134 58.0463C99.732 58.0548 99.3333 57.9752 98.9656 57.8132C98.5979 57.6512 98.2702 57.4107 98.0053 57.1086C97.4409 56.4462 97.1437 55.5971 97.1718 54.7272V54.37C97.1362 53.49 97.4338 52.629 98.0053 51.9589C98.2516 51.6558 98.5625 51.4117 98.9153 51.2443C99.2681 51.0769 99.6539 50.9905 100.044 50.9914C100.409 50.9732 100.774 51.0343 101.113 51.1705C101.452 51.3067 101.758 51.5147 102.009 51.7803C102.488 52.366 102.732 53.1086 102.694 53.864V54.504H97.916V54.6975C97.9038 55.3687 98.1188 56.0243 98.5262 56.5579C98.7124 56.8065 98.9556 57.0065 99.2354 57.1412C99.5152 57.2759 99.8233 57.3413 100.134 57.3319C100.544 57.3428 100.953 57.2772 101.339 57.1384C101.656 57.0138 101.945 56.8265 102.188 56.5877L102.5 57.0938C102.23 57.3767 101.899 57.5954 101.533 57.7338C101.087 57.9047 100.611 57.9857 100.134 57.9719M100.044 51.557C99.7641 51.5446 99.4846 51.5957 99.2269 51.7065C98.9691 51.8173 98.7398 51.985 98.556 52.197C98.1731 52.6442 97.9435 53.2023 97.9011 53.7896H101.89V53.611C101.905 53.0678 101.719 52.5381 101.369 52.1226C101.182 51.917 100.951 51.7565 100.693 51.6533C100.436 51.5502 100.158 51.5071 99.8807 51.5272" fill="#434343"/>
<path d="M108.514 57.8829C108.468 57.6865 108.433 57.4877 108.409 57.2876C108.409 57.1238 108.409 56.9601 108.409 56.7815C108.141 57.1497 107.796 57.4545 107.397 57.6745C106.939 57.9161 106.426 58.0341 105.909 58.0169C105.364 58.0449 104.829 57.8578 104.42 57.4959C104.224 57.3044 104.072 57.0714 103.977 56.814C103.882 56.5565 103.845 56.281 103.87 56.0076C103.866 55.7116 103.938 55.4197 104.079 55.1592C104.219 54.8988 104.424 54.6785 104.674 54.5192C105.332 54.1072 106.101 53.9096 106.876 53.9536H108.365V53.1052C108.347 52.7209 108.182 52.3582 107.903 52.0931C107.532 51.7998 107.066 51.6517 106.594 51.6764C106.129 51.6587 105.672 51.8005 105.299 52.0783C105.138 52.183 105.006 52.3264 104.915 52.4955C104.824 52.6645 104.777 52.8537 104.778 53.0457H104.078C104.069 52.7806 104.127 52.5175 104.247 52.2808C104.367 52.044 104.544 51.8413 104.763 51.6913C105.292 51.2751 105.951 51.059 106.623 51.081C107.279 51.0481 107.924 51.2544 108.439 51.6615C108.673 51.8623 108.856 52.1149 108.975 52.3991C109.094 52.6833 109.145 52.9914 109.124 53.2987V56.5583C109.108 56.7912 109.108 57.0249 109.124 57.2578C109.151 57.4841 109.196 57.708 109.258 57.9276L108.514 57.8829ZM106.043 57.362C106.566 57.3839 107.085 57.2492 107.531 56.975C107.92 56.7463 108.236 56.4105 108.439 56.0076V54.5192H106.951C106.371 54.4909 105.798 54.6473 105.314 54.9657C105.129 55.0809 104.976 55.2408 104.869 55.4307C104.762 55.6206 104.705 55.8344 104.703 56.0522C104.696 56.2206 104.727 56.3885 104.794 56.5431C104.861 56.6978 104.963 56.8353 105.09 56.9452C105.379 57.1931 105.752 57.321 106.132 57.3024" fill="#434343"/>
<path d="M112.309 49.3545V51.0959H113.798V51.7061H112.309V56.1712C112.282 56.5016 112.366 56.8316 112.547 57.1089C112.628 57.2024 112.729 57.2764 112.842 57.3254C112.956 57.3744 113.079 57.397 113.202 57.3917H113.559H113.946L114.065 57.9573C113.917 58.0163 113.762 58.0563 113.604 58.0764L113.113 58.0466C112.906 58.0539 112.7 58.0179 112.508 57.9411C112.315 57.8642 112.141 57.748 111.997 57.6001C111.679 57.1729 111.535 56.6408 111.595 56.1117V51.6466H110.419V51.0364H111.625V49.3545H112.309Z" fill="#434343"/>
<path d="M116.238 49.1163H115.494V48.0596H116.238V49.1163ZM116.238 57.8531H115.494V51.0959H116.238V57.8531Z" fill="#434343"/>
<path d="M119.065 51.0953V52.2711C119.263 51.8735 119.567 51.5385 119.944 51.3036C120.34 51.0705 120.794 50.952 121.253 50.9613C121.57 50.9388 121.887 50.9888 122.181 51.1074C122.475 51.2261 122.738 51.4103 122.95 51.646C123.38 52.2577 123.585 52.999 123.531 53.7446V57.8822H122.786V53.7446C122.842 53.158 122.683 52.5712 122.34 52.0925C122.186 51.9205 121.994 51.7865 121.78 51.7013C121.566 51.6161 121.334 51.5818 121.105 51.6013C120.638 51.5879 120.181 51.735 119.81 52.018C119.472 52.3161 119.224 52.7028 119.095 53.1343V57.8822H118.321V51.0953H119.065Z" fill="#434343"/>
<path d="M125.198 54.549C125.153 53.631 125.392 52.7214 125.883 51.9443C126.242 51.4656 126.765 51.1348 127.351 51.0142C127.938 50.8936 128.548 50.9915 129.068 51.2894C129.431 51.5088 129.733 51.8159 129.946 52.1825L130.035 51.0959H130.66V57.8085C130.694 58.5638 130.438 59.3035 129.946 59.8773C129.68 60.1375 129.362 60.3394 129.014 60.4701C128.665 60.6008 128.293 60.6574 127.922 60.6364C127.571 60.6311 127.222 60.5912 126.88 60.5173C126.544 60.4514 126.219 60.3413 125.912 60.1899L126.106 59.5499C126.377 59.6847 126.661 59.7896 126.954 59.8625C127.268 59.9289 127.587 59.9638 127.907 59.9666C128.182 59.9844 128.458 59.9416 128.715 59.8414C128.973 59.7411 129.205 59.5857 129.395 59.3862C129.751 58.9397 129.931 58.3785 129.901 57.8085V56.9452C129.677 57.2795 129.376 57.5552 129.023 57.749C128.638 57.935 128.215 58.0268 127.788 58.0169C127.418 58.0342 127.049 57.9605 126.715 57.8022C126.38 57.6439 126.089 57.4059 125.868 57.109C125.378 56.3979 125.138 55.545 125.183 54.6829L125.198 54.549ZM125.942 54.6829C125.931 55.3795 126.128 56.0636 126.508 56.6476C126.673 56.8863 126.896 57.0786 127.157 57.2063C127.417 57.334 127.706 57.3927 127.996 57.3769C128.422 57.3936 128.843 57.2793 129.202 57.0494C129.538 56.8148 129.801 56.4897 129.961 56.1118V52.9564C129.806 52.5758 129.555 52.2422 129.232 51.989C128.878 51.7186 128.441 51.5816 127.996 51.602C127.698 51.5956 127.404 51.6679 127.142 51.8116C126.881 51.9553 126.662 52.1654 126.508 52.4206C126.151 53.0718 125.976 53.807 126.002 54.549L125.942 54.6829Z" fill="#434343"/>
<path d="M141.154 53.4623H136.748V57.2427H141.794V57.8976H136.004V48.7441H141.764V49.3841H136.748V52.8223H141.154V53.4623Z" fill="#434343"/>
<path d="M147.508 57.8829C147.462 57.6865 147.427 57.4877 147.403 57.2876C147.388 57.1192 147.388 56.9499 147.403 56.7815C147.135 57.1497 146.79 57.4545 146.391 57.6745C145.933 57.9161 145.42 58.0341 144.903 58.0169C144.359 58.0387 143.826 57.8524 143.414 57.4959C143.221 57.302 143.072 57.0687 142.977 56.8118C142.882 56.555 142.843 56.2807 142.864 56.0076C142.863 55.7105 142.938 55.4181 143.081 55.1578C143.224 54.8975 143.431 54.6778 143.682 54.5192C144.339 54.134 145.097 53.9575 145.855 54.0131H147.344V53.1648C147.345 52.9653 147.306 52.7677 147.229 52.5836C147.153 52.3995 147.04 52.2327 146.897 52.0931C146.526 51.7998 146.06 51.6517 145.588 51.6764C145.123 51.6587 144.666 51.8005 144.293 52.0783C144.132 52.183 144 52.3264 143.909 52.4955C143.818 52.6645 143.771 52.8537 143.772 53.0457H143.072C143.069 52.7799 143.131 52.5174 143.253 52.2812C143.375 52.045 143.553 51.8425 143.772 51.6913C144.301 51.2751 144.959 51.059 145.632 51.081C146.288 51.0481 146.933 51.2544 147.448 51.6615C147.679 51.8645 147.861 52.1174 147.979 52.4011C148.098 52.6848 148.15 52.9917 148.133 53.2987V56.5583C148.117 56.7912 148.117 57.0249 148.133 57.2578C148.145 57.4862 148.191 57.7117 148.267 57.9276L147.508 57.8829ZM145.037 57.362C145.56 57.3795 146.077 57.2451 146.525 56.975C146.914 56.7463 147.23 56.4105 147.433 56.0076V54.5192H145.855C145.276 54.4888 144.702 54.6453 144.218 54.9657C144.031 55.0787 143.877 55.2382 143.77 55.4286C143.663 55.619 143.607 55.8338 143.608 56.0522C143.601 56.2192 143.631 56.3856 143.695 56.5399C143.759 56.6942 143.857 56.8325 143.98 56.9452C144.273 57.1968 144.652 57.3249 145.037 57.3024" fill="#434343"/>
<path d="M154.192 56.1564C154.189 55.9981 154.153 55.8422 154.087 55.6986C154.02 55.555 153.924 55.4271 153.805 55.3229C153.364 55.009 152.853 54.8095 152.316 54.7425C151.673 54.639 151.06 54.4006 150.515 54.0429C150.327 53.9013 150.174 53.7168 150.07 53.5046C149.967 53.2923 149.915 53.0585 149.92 52.8225C149.92 52.5645 149.98 52.3101 150.096 52.0799C150.213 51.8497 150.382 51.6502 150.59 51.4978C151.084 51.1212 151.696 50.9314 152.316 50.962C152.974 50.9266 153.624 51.1272 154.147 51.5276C154.366 51.7052 154.539 51.9335 154.651 52.1928C154.762 52.4521 154.809 52.7346 154.787 53.016H154.088C154.089 52.8267 154.046 52.6397 153.964 52.4693C153.881 52.299 153.761 52.1499 153.611 52.0336C153.249 51.7448 152.794 51.5968 152.331 51.6169C151.89 51.5866 151.453 51.7131 151.096 51.9741C150.971 52.0742 150.87 52.201 150.8 52.3452C150.731 52.4895 150.695 52.6475 150.694 52.8076C150.692 52.9551 150.723 53.1013 150.784 53.2353C150.846 53.3693 150.937 53.4876 151.051 53.5815C151.503 53.8643 152.011 54.047 152.54 54.1174C153.191 54.2328 153.81 54.4866 154.355 54.8615C154.551 55.0075 154.707 55.1992 154.811 55.4198C154.915 55.6404 154.963 55.8831 154.951 56.1267C154.958 56.3957 154.899 56.6624 154.78 56.9037C154.661 57.1449 154.484 57.3533 154.266 57.5108C153.737 57.8853 153.097 58.069 152.45 58.0318C151.752 58.0733 151.062 57.8678 150.501 57.4513C150.276 57.2768 150.097 57.0499 149.981 56.7904C149.864 56.531 149.812 56.2469 149.831 55.9629H150.53C150.53 56.1754 150.585 56.3843 150.689 56.5694C150.794 56.7545 150.944 56.9096 151.126 57.0197C151.524 57.2476 151.977 57.3609 152.435 57.3471C152.89 57.3743 153.341 57.2486 153.715 56.9899C153.861 56.8975 153.981 56.77 154.064 56.6192C154.147 56.4683 154.191 56.2989 154.192 56.1267" fill="#434343"/>
<path d="M158.612 56.052L158.85 56.8557L160.904 51.0957H161.752L158.776 58.9841C158.617 59.4081 158.385 59.8011 158.091 60.145C157.939 60.3149 157.75 60.4476 157.538 60.5327C157.326 60.6179 157.098 60.6533 156.87 60.6362H156.543H156.26L156.35 60.011H156.603H156.841C156.991 60.0157 157.14 59.986 157.277 59.9241C157.413 59.8621 157.534 59.7697 157.63 59.6538C157.847 59.3887 158.013 59.086 158.121 58.7608L158.478 57.8529L155.858 51.1404H156.692L158.612 56.052Z" fill="#434343"/>
<path d="M171.547 55.6357C171.555 55.4022 171.508 55.17 171.41 54.9579C171.311 54.7459 171.165 54.56 170.981 54.4152C170.394 54.0089 169.731 53.7254 169.031 53.5817C168.218 53.4121 167.448 53.0778 166.769 52.5994C166.518 52.4118 166.317 52.1662 166.182 51.8836C166.048 51.601 165.983 51.29 165.995 50.9771C165.989 50.6431 166.064 50.3127 166.215 50.0144C166.365 49.7161 166.586 49.4591 166.858 49.2655C167.505 48.8073 168.285 48.577 169.076 48.6106C169.909 48.5683 170.725 48.8511 171.353 49.3994C171.629 49.6325 171.849 49.925 171.996 50.2548C172.143 50.5847 172.213 50.9436 172.202 51.3045H171.502C171.508 51.0238 171.452 50.7452 171.339 50.4882C171.226 50.2312 171.058 50.0019 170.847 49.8162C170.361 49.3972 169.731 49.1837 169.091 49.2208C168.477 49.1859 167.868 49.3589 167.364 49.712C167.173 49.852 167.017 50.0359 166.911 50.2482C166.805 50.4605 166.751 50.6951 166.754 50.9324C166.757 51.1535 166.81 51.371 166.908 51.5693C167.006 51.7675 167.146 51.9415 167.32 52.0785C167.918 52.4815 168.591 52.7599 169.299 52.8971C170.111 53.074 170.876 53.4187 171.547 53.9092C171.796 54.1147 171.995 54.3743 172.129 54.6683C172.264 54.9623 172.329 55.2829 172.321 55.6059C172.327 55.9489 172.247 56.288 172.088 56.5922C171.93 56.8964 171.698 57.156 171.413 57.3473C170.742 57.7988 169.944 58.0231 169.136 57.9873C168.286 58.0098 167.449 57.7709 166.739 57.3027C166.409 57.0883 166.143 56.788 165.97 56.4341C165.797 56.0802 165.723 55.6859 165.757 55.2934H166.442C166.424 55.604 166.489 55.9137 166.63 56.1909C166.771 56.4681 166.984 56.7028 167.245 56.871C167.806 57.2221 168.459 57.3983 169.121 57.3771C169.742 57.4118 170.358 57.2447 170.877 56.9008C171.086 56.7632 171.257 56.5752 171.374 56.3541C171.491 56.1329 171.55 55.8859 171.547 55.6357Z" fill="#434343"/>
<path d="M174.478 51.0963V52.2125C174.685 51.8339 174.988 51.5158 175.356 51.2897C175.75 51.0666 176.197 50.9535 176.651 50.9623C177.113 50.9472 177.567 51.083 177.945 51.3493C178.328 51.6274 178.598 52.0344 178.705 52.4953C178.889 52.0456 179.193 51.6545 179.583 51.3642C179.989 51.0858 180.474 50.945 180.967 50.9623C181.285 50.9441 181.602 51.0006 181.894 51.1273C182.186 51.2539 182.445 51.4472 182.649 51.6916C183.088 52.3492 183.293 53.1358 183.229 53.9242V57.8832H182.485V53.9093C182.546 53.2803 182.388 52.6497 182.039 52.1232C181.884 51.9502 181.693 51.8137 181.48 51.7236C181.266 51.6335 181.035 51.592 180.803 51.6023C180.551 51.5904 180.299 51.6335 180.065 51.7286C179.831 51.8237 179.621 51.9685 179.449 52.153C179.123 52.5529 178.921 53.0392 178.868 53.5521V57.8832H178.109V53.9093C178.166 53.2853 178.009 52.6605 177.663 52.1381C177.513 51.958 177.324 51.8156 177.109 51.7225C176.894 51.6294 176.661 51.5882 176.427 51.6023C175.968 51.5744 175.515 51.7236 175.162 52.019C174.836 52.3037 174.606 52.6837 174.507 53.1056V57.8832H173.733V51.0963H174.478Z" fill="#434343"/>
<path d="M189.54 57.8827C189.54 57.6595 189.54 57.466 189.435 57.2874C189.331 57.1088 189.435 56.9599 189.435 56.7813C189.173 57.1492 188.833 57.4542 188.438 57.6744C187.98 57.916 187.467 58.034 186.95 58.0167C186.405 58.04 185.873 57.8536 185.461 57.4958C185.265 57.3042 185.113 57.0713 185.018 56.8138C184.923 56.5563 184.886 56.2808 184.911 56.0074C184.907 55.7098 184.981 55.4163 185.124 55.1556C185.268 54.8948 185.476 54.6755 185.729 54.519C186.381 54.1054 187.147 53.9076 187.917 53.9534H189.406V53.1051C189.408 52.7311 189.27 52.3697 189.019 52.093C188.646 51.8021 188.181 51.6542 187.709 51.6762C187.239 51.6563 186.777 51.7982 186.399 52.0781C186.241 52.1856 186.111 52.3297 186.02 52.4981C185.93 52.6665 185.881 52.8543 185.878 53.0455H185.194C185.188 52.7793 185.249 52.5158 185.371 52.2792C185.493 52.0426 185.673 51.8404 185.893 51.6911C186.42 51.2703 187.08 51.0536 187.754 51.0809C188.405 51.0489 189.045 51.2552 189.555 51.6613C189.788 51.8621 189.972 52.1147 190.091 52.3989C190.209 52.6832 190.26 52.9912 190.239 53.2985V56.5581C190.224 56.791 190.224 57.0247 190.239 57.2576C190.267 57.484 190.311 57.7079 190.373 57.9274L189.54 57.8827ZM187.084 57.3618C187.607 57.3793 188.124 57.2449 188.572 56.9748C188.961 56.7502 189.272 56.4128 189.465 56.0074V54.519H187.977C187.398 54.4928 186.825 54.649 186.34 54.9655C186.155 55.0807 186.002 55.2406 185.895 55.4305C185.789 55.6205 185.732 55.8342 185.729 56.052C185.725 56.22 185.758 56.3869 185.825 56.5411C185.892 56.6952 185.991 56.8331 186.116 56.9451C186.409 57.1966 186.788 57.3247 187.173 57.3023" fill="#434343"/>
<path d="M195.286 51.7356H194.735C194.31 51.7216 193.893 51.8587 193.559 52.1226C193.241 52.4181 193.019 52.8015 192.919 53.224V57.9124H192.16V51.0956H192.815L192.919 52.2268C193.093 51.837 193.365 51.4987 193.708 51.2445C194.052 51.0027 194.464 50.8775 194.884 50.8872H195.167H195.39L195.286 51.7356Z" fill="#434343"/>
<path d="M197.95 49.3545V51.0959H199.438V51.7061H197.95V56.1712C197.927 56.5033 198.016 56.8334 198.203 57.1089C198.279 57.2039 198.377 57.2792 198.488 57.3284C198.599 57.3777 198.721 57.3994 198.843 57.3917H199.2H199.587L199.706 57.9573C199.558 58.0181 199.403 58.0582 199.244 58.0764H198.709C198.502 58.0837 198.296 58.0477 198.103 57.9708C197.911 57.8939 197.737 57.7778 197.592 57.6298C197.274 57.2027 197.131 56.6706 197.19 56.1415V51.6764H196.015V51.0661H197.19V49.3545H197.95Z" fill="#434343"/>
<path d="M211.047 57.8827H210.303V53.6855H205.094V57.8827H204.35V48.7441H205.094V53.0455H210.303V48.7441H211.047V57.8827Z" fill="#434343"/>
<path d="M212.834 54.3852C212.8 53.4919 213.097 52.6175 213.667 51.9294C213.931 51.6126 214.264 51.3606 214.641 51.1928C215.018 51.0251 215.428 50.9461 215.84 50.9619C216.254 50.9483 216.666 51.0281 217.045 51.1956C217.424 51.3631 217.76 51.614 218.028 51.9294C218.593 52.6196 218.885 53.4938 218.847 54.3852V54.5936C218.887 55.4898 218.596 56.3694 218.028 57.0643C217.761 57.39 217.421 57.6485 217.036 57.8191C216.651 57.9897 216.231 58.0676 215.81 58.0466C215.397 58.0643 214.986 57.9877 214.607 57.8227C214.228 57.6576 213.891 57.4085 213.623 57.094C213.05 56.4013 212.753 55.5215 212.789 54.6233L212.834 54.3852ZM213.593 54.5936C213.566 55.3013 213.775 55.9978 214.188 56.5731C214.386 56.8239 214.638 57.0267 214.926 57.1661C215.213 57.3054 215.528 57.3779 215.848 57.3779C216.167 57.3779 216.482 57.3054 216.77 57.1661C217.057 57.0267 217.309 56.8239 217.507 56.5731C217.92 55.9978 218.13 55.3013 218.103 54.5936V54.3852C218.128 53.6824 217.918 52.9913 217.507 52.4205C217.319 52.1562 217.069 51.943 216.777 51.8C216.486 51.6571 216.164 51.589 215.84 51.6019C215.519 51.5902 215.199 51.6589 214.91 51.8018C214.622 51.9447 214.374 52.1574 214.188 52.4205C213.777 52.9913 213.568 53.6824 213.593 54.3852V54.5936Z" fill="#434343"/>
<path d="M221.048 51.0963V52.2125C221.256 51.8339 221.559 51.5158 221.927 51.2897C222.321 51.0666 222.768 50.9535 223.221 50.9623C223.684 50.9472 224.138 51.083 224.516 51.3493C224.899 51.6274 225.169 52.0344 225.275 52.4953C225.46 52.0456 225.764 51.6545 226.154 51.3642C226.56 51.0858 227.045 50.945 227.538 50.9623C227.856 50.9441 228.173 51.0006 228.465 51.1273C228.757 51.2539 229.016 51.4472 229.22 51.6916C229.659 52.3492 229.863 53.1358 229.8 53.9242V57.8832H229.056V53.9093C229.116 53.2803 228.959 52.6497 228.609 52.1232C228.455 51.9502 228.264 51.8137 228.05 51.7236C227.837 51.6335 227.606 51.592 227.374 51.6023C227.122 51.5904 226.87 51.6335 226.636 51.7286C226.402 51.8237 226.192 51.9685 226.02 52.153C225.695 52.5551 225.489 53.0395 225.424 53.5521C225.418 53.5965 225.418 53.6416 225.424 53.686V57.8832H224.74V53.9093C224.797 53.2853 224.639 52.6605 224.293 52.1381C224.144 51.958 223.954 51.8156 223.739 51.7225C223.525 51.6294 223.291 51.5882 223.058 51.6023C222.82 51.5947 222.583 51.6341 222.361 51.7184C222.139 51.8027 221.936 51.9302 221.763 52.0935C221.437 52.381 221.203 52.7593 221.093 53.18V57.9576H220.334V51.0963H221.048Z" fill="#434343"/>
<path d="M234.37 58.0463C233.969 58.0558 233.57 57.9767 233.202 57.8146C232.834 57.6526 232.506 57.4115 232.242 57.1086C231.667 56.4514 231.364 55.6 231.394 54.7272V54.37C231.364 53.4883 231.666 52.6275 232.242 51.9589C232.485 51.6562 232.794 51.412 233.144 51.2446C233.494 51.0771 233.878 50.9906 234.266 50.9914C234.631 50.9732 234.996 51.0343 235.335 51.1705C235.674 51.3067 235.98 51.5147 236.231 51.7803C236.739 52.3632 237.001 53.1213 236.96 53.8937V54.5337H232.182V54.7272C232.16 55.4137 232.376 56.0867 232.793 56.6324C232.978 56.8818 233.221 57.0826 233.501 57.2174C233.781 57.3522 234.09 57.417 234.4 57.4063C234.806 57.4186 235.21 57.3529 235.591 57.2128C235.908 57.0882 236.196 56.9009 236.439 56.6621L236.767 57.1682C236.496 57.4511 236.165 57.6698 235.799 57.8082C235.353 57.9777 234.878 58.0586 234.4 58.0463M234.296 51.6314C234.03 51.6302 233.768 51.6868 233.526 51.7973C233.284 51.9078 233.07 52.0696 232.897 52.2714C232.514 52.7186 232.284 53.2768 232.242 53.864H236.216V53.6854C236.238 53.1411 236.052 52.6089 235.695 52.197C235.518 51.9998 235.299 51.8442 235.055 51.7412C234.81 51.6383 234.546 51.5907 234.281 51.6017" fill="#434343"/>
<path d="M242.511 56.1564C242.509 55.9981 242.473 55.8422 242.406 55.6986C242.34 55.555 242.244 55.4271 242.124 55.3229C241.684 55.009 241.173 54.8095 240.636 54.7425C239.993 54.639 239.379 54.4006 238.835 54.0429C238.649 53.8997 238.499 53.7145 238.398 53.5024C238.297 53.2903 238.248 53.0573 238.255 52.8225C238.251 52.5656 238.309 52.3116 238.422 52.0813C238.536 51.851 238.703 51.651 238.909 51.4978C239.404 51.1212 240.015 50.9314 240.636 50.962C241.294 50.9266 241.943 51.1272 242.467 51.5276C242.686 51.7052 242.859 51.9335 242.97 52.1928C243.082 52.4521 243.129 52.7346 243.107 53.016H242.407C242.408 52.8267 242.366 52.6397 242.283 52.4693C242.201 52.299 242.08 52.1499 241.931 52.0336C241.568 51.7448 241.114 51.5968 240.651 51.6169C240.214 51.585 239.781 51.7118 239.43 51.9741C239.301 52.0711 239.196 52.197 239.124 52.3417C239.051 52.4863 239.014 52.6458 239.014 52.8076C239.011 52.9551 239.042 53.1013 239.104 53.2353C239.166 53.3693 239.257 53.4876 239.371 53.5815C239.801 53.8547 240.282 54.037 240.785 54.1174C241.436 54.2328 242.055 54.4866 242.601 54.8615C242.796 55.0075 242.952 55.1992 243.056 55.4198C243.16 55.6404 243.208 55.8831 243.196 56.1267C243.203 56.3957 243.145 56.6624 243.025 56.9037C242.906 57.1449 242.73 57.3533 242.511 57.5108C241.983 57.8853 241.342 58.069 240.695 58.0318C239.998 58.0733 239.307 57.8678 238.746 57.4513C238.521 57.2768 238.342 57.0499 238.226 56.7904C238.109 56.531 238.057 56.2469 238.076 55.9629H238.775C238.775 56.1754 238.83 56.3843 238.935 56.5694C239.039 56.7545 239.189 56.9096 239.371 57.0197C239.769 57.2476 240.222 57.3609 240.681 57.3471C241.139 57.3709 241.594 57.2456 241.975 56.9899C242.117 56.8948 242.233 56.7664 242.314 56.6158C242.394 56.4653 242.437 56.2973 242.437 56.1267" fill="#434343"/>
<path d="M67.1069 11.3713C66.0948 5.12017 58.4743 1.36947 49.4101 3.1704C43.9854 4.36625 39.0779 7.2472 35.3896 11.4011C39.5009 11.7735 43.4089 13.3587 46.6179 15.9556C49.8269 18.5524 52.1922 22.0439 53.4138 25.9871C64.3087 23.8737 68.0594 18.3816 67.1069 11.3713Z" fill="#434343"/>
<path d="M44.6472 26.7904H45.2425C44.1151 24.2327 42.1659 22.1247 39.7042 20.8008C37.2425 19.4769 34.4091 19.013 31.6537 19.4825C31.6311 19.7698 31.6311 20.0585 31.6537 20.3458C32.5914 25.1235 37.89 26.7904 44.6472 26.7904Z" fill="#434343"/>
<path d="M33.6193 17.8601C36.451 17.8667 39.216 18.7207 41.5582 20.3123C43.9004 21.9038 45.7127 24.16 46.7616 26.7903C48.3988 26.7159 50.0955 26.5522 51.822 26.3289H51.956C50.7495 22.5399 48.3988 19.2176 45.2272 16.8189C42.0556 14.4202 38.2188 13.0629 34.2444 12.9336C33.0524 14.4498 32.2043 16.2069 31.7588 18.0834C32.3738 17.9713 32.9951 17.8967 33.6193 17.8601Z" fill="#434343"/>
<path d="M22.6342 37.2095H22.0537C23.063 39.4296 24.6903 41.3121 26.7412 42.6318C28.792 43.9516 31.1796 44.6527 33.6184 44.6513C34.32 44.6679 35.0217 44.628 35.717 44.5323C35.715 44.2479 35.6901 43.9642 35.6425 43.6839C34.6453 38.8764 29.3467 37.2095 22.6342 37.2095Z" fill="#434343"/>
<path d="M33.619 46.1397C30.7872 46.1331 28.0222 45.2791 25.68 43.6876C23.3378 42.096 21.5256 39.8398 20.4766 37.2095C18.8394 37.2839 17.1427 37.4327 15.4311 37.656H15.2822C16.4888 41.4451 18.8394 44.7673 22.011 47.166C25.1826 49.5647 29.0194 50.922 32.9939 51.0513C34.1887 49.535 35.0417 47.7783 35.4943 45.9016C34.8736 45.9967 34.2469 46.0464 33.619 46.0504" fill="#434343"/>
<path d="M13.8381 38.0273C2.97296 40.1855 -0.82239 45.6329 0.145052 52.6432C1.14226 58.8943 8.76273 62.645 17.8269 60.8292C23.252 59.6432 28.161 56.7666 31.8474 52.6134C27.7337 52.2537 23.8214 50.6729 20.6125 48.074C17.4036 45.475 15.0446 41.9765 13.8381 38.0273Z" fill="#434343"/>
<path d="M28.2754 20.4951C26.0823 21.5146 24.2255 23.1387 22.9231 25.1766C21.6208 27.2145 20.9269 29.5817 20.9229 32.0002C20.9295 32.6885 20.9892 33.3751 21.1015 34.0542C22.4479 33.7557 23.6695 33.0488 24.5991 32.03C26.6084 29.9165 27.8587 25.3919 28.2754 20.4951Z" fill="#434343"/>
<path d="M19.4489 31.9995C19.4565 29.1661 20.3108 26.3997 21.902 24.0553C23.4932 21.7109 25.7488 19.8956 28.3791 18.8423C28.449 17.0806 28.4142 15.3162 28.2749 13.5586C24.2777 14.7158 20.7642 17.1393 18.2627 20.4649C15.7611 23.7904 14.4068 27.8382 14.4033 31.9995C14.4033 32.0739 14.4033 32.1484 14.4033 32.2377C15.9153 33.3743 17.7252 34.0466 19.6126 34.1725C19.5 33.4535 19.4403 32.7273 19.434 31.9995" fill="#434343"/>
<path d="M28.1569 12.0558C27.9471 9.34267 27.1389 6.70969 25.7904 4.34605C25.0254 3.0651 23.9517 1.99622 22.6674 1.23704C21.383 0.477851 19.9289 0.0525576 18.4378 0C15.4164 0 12.0974 1.68186 8.92714 5.2093C2.67598 12.0856 5.53365 21.2391 9.55226 27.133C10.5168 28.5957 11.6619 29.9309 12.9606 31.107C13.158 26.7338 14.7345 22.5353 17.4643 19.1131C20.1941 15.6908 23.937 13.2204 28.1569 12.0558Z" fill="#434343"/>
<path d="M39.0967 51.9442C39.2874 54.661 40.0969 57.2981 41.4632 59.654C42.2281 60.9349 43.3018 62.0038 44.5862 62.763C45.8706 63.5222 47.3247 63.9475 48.8157 64C51.7925 64 55.1413 62.3033 58.3711 58.7759C64.6371 51.9145 61.7795 42.7461 57.7609 36.8521C56.768 35.3936 55.5982 34.0637 54.2781 32.8931C54.0862 37.2656 52.5135 41.4649 49.7859 44.8878C47.0583 48.3107 43.3161 50.7811 39.0967 51.9442Z" fill="#434343"/>
<path d="M38.9778 43.5046C41.1709 42.4851 43.0277 40.8611 44.33 38.8231C45.6324 36.7852 46.3263 34.418 46.3303 31.9995C46.3183 31.3159 46.2536 30.6342 46.1368 29.9604C44.7913 30.2506 43.5722 30.9591 42.6541 31.9846C40.6448 34.0981 39.3945 38.6228 38.9629 43.5046" fill="#434343"/>
<path d="M47.8025 32.0001C47.8009 34.8349 46.949 37.604 45.357 39.9496C43.7651 42.2951 41.5061 44.1092 38.8722 45.1573C38.785 46.9233 38.8098 48.6931 38.9467 50.456C42.9466 49.2964 46.4625 46.8707 48.9664 43.5428C51.4703 40.215 52.8271 36.1647 52.8332 32.0001V31.7769C51.3243 30.6233 49.5166 29.926 47.6239 29.7676C47.748 30.4854 47.8127 31.2122 47.8174 31.9406" fill="#434343"/>
</svg>
