<svg width="509" height="64" viewBox="0 0 509 64" fill="none" xmlns="http://www.w3.org/2000/svg">
<path d="M283.022 29.9271C274.26 18.5391 281.343 0.801082 297.346 0.591165H329.877L326.939 8.51553H309.729C306.371 8.51553 303.957 8.51553 300.652 8.51553C296.297 8.56801 293.831 13.9209 296.297 17.1746C300.337 23.4196 307.263 27.7754 311.566 34.1779C320.958 46.8254 311.461 63.3039 297.451 63.3039H261.719L264.658 55.3795H284.072C287.43 55.3795 289.581 55.3795 292.834 55.3795C297.189 55.327 299.603 49.9741 297.346 46.7729C293.778 40.9477 287.43 35.3324 283.022 29.9271ZM250.019 63.4088C243.722 63.4088 238.528 63.4088 232.284 63.4088L255.423 0.643644H273.158L250.019 63.4088ZM337.381 63.4088C331.084 63.4088 325.89 63.4088 319.593 63.4088L342.733 0.643644H360.467L337.381 63.4088ZM364.245 19.6411C370.436 6.5738 383.449 -0.353461 395.517 0.0138934H400.187H406.536C415.823 0.433727 421.437 8.0957 421.962 14.4457C422.067 15.9676 422.014 17.437 421.857 18.5391C421.699 19.2738 421.542 19.956 421.384 20.6907C419.443 28.7725 416.505 36.9593 412.674 44.3589C406.483 57.4262 393.471 64.3535 381.403 63.9861H376.733H376.68H370.384C361.097 63.5663 355.483 55.9043 355.01 49.5543C354.905 48.0324 354.905 46.6155 355.115 45.4609C355.273 44.7787 355.43 44.044 355.588 43.3093C357.424 35.2275 360.362 27.0407 364.245 19.6411ZM397.826 6.52132C391.267 6.73124 385.758 10.4573 383.396 16.5973L371.643 48.5572C371.328 49.2919 371.171 50.1316 371.223 50.9712C371.223 54.3824 373.899 57.2163 377.205 57.4787H378.937C385.495 57.2688 391.005 53.5427 393.366 47.4027L405.066 15.4428C405.381 14.7081 405.539 13.8684 405.486 13.0287C405.486 9.6176 402.81 6.78372 399.452 6.52132H397.826ZM208.883 43.7816L237.741 0.643644H248.182L207.833 60.7849C206.784 62.3592 205.052 63.3564 203.058 63.4613H202.691C202.639 63.4613 202.534 63.4613 202.481 63.4613H202.534H201.904H195.713H192.669L187.737 0.696124H205.472L208.883 43.7816ZM440.641 20.9006L440.588 20.1134L424.585 63.3564H415.455L438.699 0.591165H450.295L467.033 42.9944L482.721 0.591165H491.904L468.66 63.3564H460.264C457.956 63.2514 455.962 61.782 455.07 59.7353L440.641 20.9006Z" fill="#434343"/>
<path d="M91.1922 63.409C84.8958 63.409 78.5995 63.409 72.3031 63.409L95.4947 0.643788H96.0194H113.807H114.331L91.1922 63.409ZM33.0559 24.7842H55.5128L64.4327 0.591309H83.2693L61.5468 59.5255C61.5468 59.5255 61.5468 59.578 61.4944 59.578C60.6024 61.7821 58.5036 63.304 55.9851 63.3565C51.0529 63.3565 46.1732 63.3565 41.2411 63.3565L52.3122 33.3384H29.9077L18.8366 63.3565C12.5402 63.3565 6.29635 63.3565 0 63.3565L23.1391 0.591309H41.9757L33.0559 24.7842ZM137.103 24.207L167.85 0.591309H181.912L150.483 24.7318L170.421 63.3565H154.418C154.471 63.3565 154.523 63.3565 154.575 63.304C152.109 63.4615 149.853 62.0445 148.804 59.9453C148.804 59.9453 148.804 59.8929 148.751 59.8929V59.9453L136.264 35.6999L131.541 39.321L122.674 63.409C116.378 63.409 110.081 63.409 103.837 63.409L126.976 0.643788H145.813L137.103 24.207Z" fill="#434343"/>
<path d="M498.776 11.0345V3.05762H502.292C503.026 3.05762 503.551 3.1101 503.918 3.26753C504.286 3.42497 504.6 3.68737 504.81 4.00224C505.02 4.3696 505.125 4.78943 505.125 5.20927C505.125 5.78654 504.968 6.25885 504.601 6.62621C504.233 6.99356 503.656 7.25596 502.921 7.36092C503.184 7.51835 503.394 7.62331 503.551 7.78075C503.866 8.04315 504.128 8.4105 504.443 8.83034L505.807 10.982H504.496L503.446 9.30265C503.131 8.83034 502.869 8.46298 502.659 8.20059C502.449 7.93819 502.292 7.78075 502.134 7.67579C501.977 7.57083 501.82 7.51835 501.662 7.46587C501.557 7.46587 501.347 7.4134 501.085 7.4134H499.826V10.982H498.776V11.0345ZM499.826 6.57373H502.082C502.554 6.57373 502.921 6.52125 503.236 6.41629C503.499 6.31133 503.708 6.15389 503.866 5.94398C504.023 5.73406 504.076 5.47166 504.076 5.20927C504.076 4.84191 503.918 4.52704 503.656 4.26464C503.394 4.00224 502.974 3.89729 502.344 3.89729H499.826V6.57373Z" fill="#434343"/>
<path d="M502.081 0.380859C498.356 0.380859 495.312 3.42466 495.312 7.15068C495.312 10.8767 498.356 13.9205 502.081 13.9205C505.806 13.9205 508.85 10.8767 508.85 7.15068C508.85 3.42466 505.806 0.380859 502.081 0.380859ZM502.081 13.1333C498.776 13.1333 496.1 10.4569 496.1 7.15068C496.1 3.84449 498.776 1.16805 502.081 1.16805C505.387 1.16805 508.063 3.84449 508.063 7.15068C508.063 10.4569 505.387 13.1333 502.081 13.1333Z" fill="#434343"/>
</svg>
