<svg width="369" height="64" viewBox="0 0 369 64" fill="none" xmlns="http://www.w3.org/2000/svg">
<path d="M357.702 8.085C361.224 10.933 364.22 14.341 366.298 18.3829C366.298 18.8322 366.298 19.2816 366.298 19.7446C354.839 19.7446 343.381 19.7446 331.575 19.7446C331.575 20.1939 331.575 20.6433 331.575 21.1063C335.394 21.1063 339.214 21.1063 343.149 21.1063C342.68 24.8629 342.119 28.3575 341.21 31.9999C341.091 32.4909 340.971 32.9819 340.847 33.4878C340.468 35.0351 340.085 36.5813 339.702 38.1276C339.443 39.1851 339.184 40.2427 338.925 41.3004C338.293 43.8748 337.659 46.4482 337.022 49.0212C339.942 49.0212 342.863 49.0212 345.873 49.0212C346.047 48.0048 346.222 46.9885 346.402 45.9414C347.237 41.3538 348.272 36.8161 349.336 32.2775C349.665 30.8727 349.989 29.467 350.313 28.0611C350.521 27.1665 350.73 26.272 350.939 25.3776C351.127 24.5731 351.314 23.7686 351.507 22.9397C352 21.1063 352 21.1063 352.681 20.4254C353.744 20.3663 354.81 20.3526 355.875 20.3589C356.518 20.3611 357.161 20.3633 357.823 20.3656C358.5 20.3713 359.176 20.377 359.873 20.3829C360.552 20.3859 361.23 20.389 361.93 20.3922C363.613 20.4002 365.296 20.4115 366.979 20.4254C368.9 27.8523 366.97 34.1791 363.136 40.718C361.989 42.4212 360.787 44.0258 359.49 45.6169C359.15 46.0338 358.81 46.4507 358.46 46.8802C349.632 56.5982 334.264 62.669 321.362 63.319C309.242 63.8896 298.22 61.7509 288.639 53.9148C283.948 49.4421 281.7 43.6337 281.532 37.2339C281.456 28.5689 285.759 22.0062 291.689 15.9254C300.248 8.00106 310.747 3.64134 322.043 1.3616C322.58 1.23083 323.117 1.10006 323.671 0.965322C335.223 -0.885177 348.075 1.2214 357.702 8.085Z" fill="#434343"/>
<path d="M44.9365 18.3828C58.1927 18.3828 71.4489 18.3828 85.1067 18.3828C85.1067 30.9649 85.1067 43.5471 85.1067 56.5105C71.8506 56.5105 58.5944 56.5105 44.9365 56.5105C44.9365 43.9283 44.9365 31.3462 44.9365 18.3828Z" fill="#434343"/>
<path d="M119.83 18.3828C123.874 18.3828 127.919 18.3828 132.085 18.3828C132.085 30.9649 132.085 43.5471 132.085 56.5105C127.592 56.5105 123.098 56.5105 118.468 56.5105C117.436 54.4252 117.436 54.4252 116.383 52.2977C111.971 43.4325 107.367 34.6627 102.809 25.8722C102.584 35.7581 102.359 45.6441 102.128 55.8296C98.5331 55.8296 94.9382 55.8296 91.2344 55.8296C91.2344 43.6969 91.2344 31.5641 91.2344 19.0637C95.5033 19.0637 99.7722 19.0637 104.171 19.0637C109.696 29.3732 114.792 39.8251 119.83 50.3828C119.83 39.8228 119.83 29.2628 119.83 18.3828Z" fill="#434343"/>
<path d="M0 18.3828C12.1328 18.3828 24.2655 18.3828 36.766 18.3828C36.766 25.1232 36.766 31.8637 36.766 38.8083C34.9685 38.8083 33.1711 38.8083 31.3191 38.8083C32.7943 42.4439 34.5478 45.7975 36.5106 49.1913C37.0602 50.1443 37.6081 51.0981 38.1543 52.053C38.3944 52.4684 38.6346 52.8837 38.882 53.3117C39.4894 54.4679 39.4894 54.4679 40.1702 56.5105C35.9013 56.5105 31.6323 56.5105 27.234 56.5105C26.668 55.4687 26.1019 54.4269 25.5186 53.3536C24.7713 51.9803 24.024 50.6071 23.2766 49.2339C22.904 48.548 22.5315 47.8621 22.1476 47.1554C21.6046 46.1582 21.6046 46.1582 21.0505 45.1408C20.7189 44.5311 20.3873 43.9214 20.0457 43.2932C19.3665 42.0747 18.6549 40.8739 17.9184 39.6892C17.0213 38.1275 17.0213 38.1275 17.0213 36.7658C19.7174 36.7658 22.4136 36.7658 25.1915 36.7658C25.1915 31.8228 25.1915 26.8798 25.1915 21.7871C20.9226 21.7871 16.6536 21.7871 12.2553 21.7871C12.2553 33.2458 12.2553 44.7045 12.2553 56.5105C8.21106 56.5105 4.16681 56.5105 0 56.5105C0 43.9283 0 31.3462 0 18.3828Z" fill="#434343"/>
<path d="M230.808 18.3828C238.223 18.3828 245.637 18.3828 253.276 18.3828C256.418 26.551 256.418 26.551 259.56 34.7192C259.786 35.3071 260.012 35.895 260.245 36.5007C260.695 37.6718 261.145 38.843 261.594 40.0144C262.58 42.5816 263.569 45.1468 264.581 47.7036C264.892 48.4938 265.203 49.2841 265.524 50.0982C265.926 51.1077 265.926 51.1077 266.336 52.1376C266.893 53.7871 266.893 53.7871 266.893 55.8296C262.849 55.8296 258.805 55.8296 254.638 55.8296C251.234 48.5956 251.234 48.5956 251.234 46.2977C246.291 46.2977 241.348 46.2977 236.255 46.2977C236.255 45.1743 236.255 44.0509 236.255 42.8935C240.749 42.8935 245.242 42.8935 249.872 42.8935C247.401 36.153 244.929 29.4126 242.383 22.4679C241.709 22.4679 241.035 22.4679 240.34 22.4679C240.161 23.0981 240.161 23.0981 239.978 23.741C237.292 33.1571 234.44 42.4865 231.247 51.7438C230.814 53.0879 230.47 54.4596 230.127 55.8296C226.083 55.8296 222.039 55.8296 217.872 55.8296C218.315 53.1706 218.678 51.1174 219.535 48.6581C219.733 48.0854 219.931 47.5128 220.135 46.9228C220.348 46.3163 220.562 45.7098 220.782 45.0849C221.003 44.4506 221.223 43.8162 221.451 43.1626C221.918 41.8253 222.386 40.4886 222.855 39.1524C223.571 37.1147 224.281 35.0747 224.989 33.0344C225.444 31.732 225.9 30.4297 226.356 29.1275C226.567 28.521 226.778 27.9145 226.995 27.2896C227.197 26.717 227.399 26.1444 227.607 25.5544C227.782 25.0557 227.957 24.5569 228.137 24.0431C228.91 22.1055 229.875 20.2489 230.808 18.3828Z" fill="#434343"/>
<path d="M136.851 18.3828C150.556 18.3828 164.262 18.3828 178.382 18.3828C178.382 19.5062 178.382 20.6296 178.382 21.7871C168.721 21.7871 159.06 21.7871 149.106 21.7871C149.106 32.1224 149.106 42.4577 149.106 53.1062C154.948 53.1062 160.789 53.1062 166.808 53.1062C166.808 47.4892 166.808 41.8722 166.808 36.0849C163.663 36.0849 160.517 36.0849 157.276 36.0849C157.276 35.1862 157.276 34.2875 157.276 33.3615C164.241 33.3615 171.206 33.3615 178.382 33.3615C178.382 40.776 178.382 48.1905 178.382 55.8296C164.677 55.8296 150.971 55.8296 136.851 55.8296C136.851 43.4722 136.851 31.1147 136.851 18.3828Z" fill="#434343"/>
<path d="M298.893 19.064C308.779 19.064 318.665 19.064 328.851 19.064C327.489 24.5108 326.128 29.9576 324.766 35.4044C323.193 35.4044 321.62 35.4044 320 35.4044C320.295 36.2162 320.59 37.0281 320.893 37.8645C321.277 38.9309 321.66 39.9974 322.042 41.064C322.237 41.5989 322.432 42.1338 322.633 42.685C322.817 43.2006 323.001 43.7162 323.191 44.2475C323.362 44.7217 323.534 45.1959 323.71 45.6845C324.085 46.9789 324.085 46.9789 324.085 49.0214C320.715 49.0214 317.345 49.0214 313.872 49.0214C313.074 46.9094 312.28 44.7958 311.489 42.681C311.262 42.0811 311.035 41.4812 310.8 40.8632C310.585 40.2861 310.37 39.709 310.149 39.1145C309.849 38.3176 309.849 38.3176 309.544 37.5046C309.106 36.0852 309.106 36.0852 309.106 34.0427C311.353 33.818 313.6 33.5933 315.915 33.3618C316.813 29.3176 317.712 25.2733 318.638 21.1065C315.268 21.1065 311.898 21.1065 308.425 21.1065C308.268 21.8174 308.111 22.5283 307.949 23.2608C307.345 25.992 306.737 28.7224 306.128 31.4526C305.834 32.7687 305.542 34.085 305.25 35.4014C304.793 37.4597 304.333 39.5172 303.872 41.5746C303.653 42.5648 303.653 42.5648 303.43 43.5749C303.224 44.4924 303.224 44.4924 303.013 45.4283C302.891 45.9743 302.77 46.5202 302.644 47.0827C302.298 48.3406 302.298 48.3406 301.617 49.0214C300.015 49.0709 298.411 49.0784 296.808 49.064C295.93 49.0578 295.051 49.0517 294.146 49.0453C293.466 49.0374 292.786 49.0295 292.085 49.0214C292.421 42.1864 294.365 35.8388 296.17 29.2767C297.069 25.9065 297.968 22.5363 298.893 19.064Z" fill="white"/>
<path d="M181.787 18.3828C195.717 18.3828 209.648 18.3828 224 18.3828C224 19.5062 224 20.6296 224 21.7871C219.057 21.7871 214.114 21.7871 209.021 21.7871C209.021 33.0211 209.021 44.2552 209.021 55.8296C204.977 55.8296 200.933 55.8296 196.766 55.8296C196.766 44.5956 196.766 33.3615 196.766 21.7871C191.823 21.7871 186.88 21.7871 181.787 21.7871C181.787 20.6637 181.787 19.5403 181.787 18.3828Z" fill="#434343"/>
<path d="M55.8301 21.7871C61.6718 21.7871 67.5135 21.7871 73.5322 21.7871C73.5322 32.1224 73.5322 42.4577 73.5322 53.1063C67.6905 53.1063 61.8488 53.1063 55.8301 53.1063C55.8301 42.7709 55.8301 32.4356 55.8301 21.7871Z" fill="#FEFDFC"/>
</svg>
