<svg width="213" height="64" viewBox="0 0 213 64" fill="none" xmlns="http://www.w3.org/2000/svg">
<g clip-path="url(#clip0_46_728)">
<path d="M102.786 9.38975C101.607 14.5776 99.9042 21.8668 99.0529 25.6756C96.6298 35.9199 93.5518 49.5789 93.5518 49.776C93.5518 49.9073 96.0403 49.973 99.0529 49.973C102.655 49.973 104.685 49.7103 104.816 49.2506C105.012 48.6596 106.06 48.7909 108.549 49.6446C112.871 51.0237 119.093 50.6953 122.825 48.7253C130.75 44.7195 135.596 35.7885 135.596 25.2816C135.596 17.1386 132.059 13.1985 124.594 13.1985C121.319 13.1985 119.747 13.5925 116.8 15.1686C114.705 16.285 112.871 17.073 112.74 16.9416C112.544 16.679 113.657 11.1628 115.425 3.80792L116.277 0.0648051H110.579H104.881L102.786 9.38975ZM122.629 23.1802C123.611 24.4279 123.808 25.4786 123.546 29.353C123.153 34.8692 121.188 38.9406 117.783 41.3047C115.818 42.6181 114.901 42.8151 111.43 42.6181C109.204 42.4867 107.174 42.2241 106.977 42.0271C106.781 41.8301 107.566 37.8243 108.614 33.1618C109.662 28.4993 110.579 24.4279 110.579 24.1652C110.579 23.9025 111.823 23.0488 113.395 22.3265C116.931 20.6848 120.861 21.0131 122.629 23.1802Z" fill="#434343"/>
<path d="M155.439 0.852517C155.308 1.3122 154.587 4.52996 153.801 7.94473C153.081 11.3595 151.902 16.5473 151.182 19.4367C150.527 22.3262 149.152 28.105 148.235 32.2421C146.205 41.1074 144.567 48.0026 144.24 49.119C144.109 49.7757 145.484 49.9727 149.806 49.9727H155.57L157.272 42.2238C158.189 38.021 160.743 26.923 162.97 17.5324C165.131 8.2074 166.899 0.458505 166.899 0.327168C166.899 0.195831 164.411 0.0644936 161.333 0.0644936C157.403 0.0644936 155.635 0.327168 155.439 0.852517Z" fill="#434343"/>
<path d="M190.672 13.2638C180.98 15.1682 174.562 21.7351 172.793 31.5197C171.353 39.4656 173.972 45.3758 180.325 48.5935C184.647 50.7606 193.554 51.2203 200.495 49.7099C203.18 49.1189 205.735 48.2652 206.062 47.8055C206.389 47.3458 207.11 45.1788 207.634 42.8804C208.42 39.8596 208.485 38.8089 207.896 38.8089C207.437 38.8089 206.848 39.0716 206.52 39.3999C204.818 41.0416 198.4 42.749 194.077 42.749C188.576 42.749 185.629 41.3043 184.189 37.8239C182.486 33.6867 182.027 33.8837 196.697 34.0808L210.122 34.2778L210.843 32.439C211.891 29.8123 211.891 21.7351 210.843 19.8307C208.747 16.0875 205.604 14.1175 200.168 13.1981C195.518 12.4758 194.536 12.4758 190.672 13.2638ZM198.858 21.0784C200.43 22.5887 201.281 25.1498 200.692 26.6602C200.43 27.4482 198.858 27.6452 192.44 27.6452C188.118 27.6452 184.582 27.4482 184.582 27.1199C184.582 25.8065 188.249 21.538 190.017 20.75C193.161 19.371 197.155 19.5023 198.858 21.0784Z" fill="#434343"/>
<path d="M16.7323 13.9206C6.77799 16.2847 2.06276 25.8067 8.02228 31.5855C9.85598 33.4899 18.697 36.839 21.644 36.839C23.5432 36.839 25.6389 39.0717 25.1805 40.6478C24.0671 44.1939 13.9818 44.3252 7.10543 40.8448C4.81331 39.7284 2.91412 38.8747 2.78315 39.006C2.71766 39.0717 2.19374 41.0418 1.60434 43.4058C0.75298 47.2146 0.75298 47.74 1.60434 48.4623C3.11059 49.5787 10.1179 50.6294 16.3394 50.6294C28.6514 50.6294 35.9862 46.0983 36.1826 38.415C36.3136 33.0959 33.5631 30.7318 24.4601 28.3021C16.4704 26.135 14.7677 24.6246 17.6492 21.9979C18.7625 21.0128 20.0068 20.7502 24.3946 20.7502C28.7824 20.7502 30.2886 21.0785 33.3011 22.5232C35.2658 23.5082 37.034 24.0993 37.296 23.8366C37.8199 23.1799 39.2606 15.6937 38.8677 15.2997C37.165 13.5923 22.168 12.6073 16.7323 13.9206Z" fill="#434343"/>
<path d="M50.001 15.2997C50.1975 16.1534 51.5072 24.0336 53.0135 32.8989L55.6986 48.9877L54.1923 51.7458L52.6206 54.5695H26.6213H0.556641V56.5396V58.5096L22.0371 58.5753C33.8252 58.641 44.6964 58.641 46.2681 58.7066C49.2806 58.7066 49.4771 58.9693 48.0363 60.8737C47.5124 61.5304 47.054 62.3184 47.054 62.5811C47.054 62.9094 49.8045 63.1064 53.1445 63.1064L59.1695 63.0408L60.4793 60.9394L61.7891 58.838L136.971 58.641L212.152 58.5096L211.956 56.6709L211.759 54.8979L138.28 54.7009C97.8081 54.6352 64.7361 54.3725 64.7361 54.1755C64.7361 53.9785 65.5874 52.5995 66.6353 51.0891C67.6176 49.5787 72.9877 41.2388 78.4888 32.5705C83.9899 23.9023 88.9016 16.1534 89.491 15.2997L90.4733 13.7893L84.3828 13.9863L78.3578 14.1833L73.0532 23.4426C70.1062 28.4991 66.9627 33.8182 66.1113 35.2629L64.4741 37.824L64.0157 34.2122C63.5573 30.9288 62.6404 23.7709 61.7236 16.6131L61.3961 13.855H55.5021C49.739 13.855 49.6735 13.855 50.001 15.2997Z" fill="#434343"/>
</g>
<defs>
<clipPath id="clip0_46_728">
<rect width="212.293" height="64" fill="white"/>
</clipPath>
</defs>
</svg>
