<svg width="168" height="64" viewBox="0 0 168 64" fill="none" xmlns="http://www.w3.org/2000/svg">
<g clip-path="url(#clip0_46_748)">
<path d="M115.771 46.912C115.771 47.4224 116.216 47.872 116.72 47.872H119.693V21.7632L115.771 23.7456V46.912Z" fill="#434343"/>
<path d="M139.672 29.3745C136.508 29.3745 133.22 31.0417 131.577 33.4721V46.9121C131.577 47.4225 132.022 47.8721 132.526 47.8721H135.499V35.0721C136.444 33.8577 137.964 33.0897 139.672 33.0897C142.39 33.0897 144.348 35.2641 144.348 38.1441V47.8721H148.206V38.0161C148.208 33.0897 144.539 29.3745 139.672 29.3745Z" fill="#434343"/>
<path d="M75.5583 41.8544V33.408H80.6159V29.888H75.5583V24.4512L71.6367 26.4336V42.6912C71.6367 46.0176 73.5967 47.8752 77.0751 47.8752H82.1327V44.4832H78.0879C76.1887 44.4816 75.5583 43.7744 75.5583 41.8544Z" fill="#434343"/>
<path d="M93.136 29.5698C89.7856 29.5698 86.2448 31.3618 84.4736 33.9858V53.6946C84.4736 54.2082 84.9152 54.6546 85.4224 54.6546H88.392V35.5858C89.3408 34.1762 91.112 33.2802 93.072 33.2802C96.1056 33.2802 98.32 35.5858 98.32 38.8482C98.32 42.0498 96.1056 44.4818 93.072 44.4818H90.2896V47.8738H93.136C98.384 47.8738 102.24 44.0978 102.24 38.8498C102.238 33.5362 98.32 29.5698 93.136 29.5698Z" fill="#434343"/>
<path d="M127.596 47.8722V29.8882H123.675V46.9122C123.675 47.4226 124.12 47.8722 124.624 47.8722H127.596Z" fill="#434343"/>
<path d="M168 47.872L159.715 38.4016L167.114 29.888H162.494L155.859 37.824V21.7632L151.938 23.7456V46.8496C151.938 47.424 152.379 47.8736 152.886 47.8736H155.859V38.9136L163.192 47.8736L168 47.872Z" fill="#434343"/>
<path d="M106.983 40.8334H112.295V36.8638H105.085L106.983 40.8334Z" fill="#434343"/>
<path d="M125.635 21.3774C124.183 21.3774 122.979 22.531 122.979 24.0014C122.979 24.7054 123.231 25.2798 123.674 25.7294H127.595C128.037 25.2798 128.29 24.7054 128.29 24.0014C128.291 22.5294 127.09 21.3774 125.635 21.3774Z" fill="#434343"/>
<path d="M40.0866 0C26.8722 0 16.3154 10.624 16.3154 23.7424V28.8H29.5906V23.7424C29.5906 18.048 34.2066 13.44 40.0866 13.44C45.9026 13.44 49.9506 17.5344 49.9506 23.6144C49.9506 29.632 45.5874 34.048 39.7682 34.048H34.7746V47.4848H39.7682C52.733 47.4848 63.229 36.8 63.229 23.6128C63.229 9.92 53.429 0 40.0866 0Z" fill="#434343"/>
<path d="M0 44.5441C0 46.2081 1.3904 47.8721 3.2864 47.8721H15.9328V60.6737C15.9328 62.3377 17.3232 64.0017 19.2192 64.0017H30.032V33.6001H0V44.5441Z" fill="#434343"/>
</g>
<defs>
<clipPath id="clip0_46_748">
<rect width="168" height="64" fill="white"/>
</clipPath>
</defs>
</svg>
