<svg width="227" height="64" viewBox="0 0 227 64" fill="none" xmlns="http://www.w3.org/2000/svg">
<path d="M215.529 0.898378C214.561 1.35935 213.235 2.58859 212.572 3.56175C211.553 5.04709 211.4 5.81537 211.553 8.32508C211.757 10.9372 212.011 11.5519 213.643 13.1396C215.223 14.7786 215.835 15.0347 218.435 15.2396C220.933 15.3933 221.698 15.2396 223.177 14.2152C225.624 12.5762 226.847 10.0153 226.592 7.09583C226.133 1.513 220.525 -1.66255 215.529 0.898378ZM223.737 2.99834C225.471 4.73978 225.726 5.25196 225.726 7.40315C225.726 10.4763 224.298 12.8835 221.851 14.0616C216.141 16.7762 210.023 10.5787 212.776 4.84221C213.949 2.28128 216.141 1.00082 219.302 1.00082C221.494 1.00082 222.004 1.20569 223.737 2.99834Z" fill="#434343"/>
<path d="M216.039 7.65931C216.039 10.0666 216.243 11.7568 216.549 11.7568C216.855 11.7568 217.059 11.091 217.059 10.2715C217.059 7.9154 218.078 7.76175 219.863 9.86171C222.208 12.6275 223.635 12.4739 221.647 9.70806C220.78 8.47881 220.729 8.22272 221.392 7.65931C222.463 6.73738 222.361 4.73985 221.188 4.07401C220.627 3.81791 219.251 3.56182 218.129 3.56182H216.039V7.65931ZM220.373 5.25203C221.647 6.22519 220.882 7.14712 218.792 7.14712C217.467 7.14712 217.059 6.94225 217.059 6.22519C217.059 4.48375 218.639 4.02279 220.373 5.25203Z" fill="#434343"/>
<path d="M3.13787 16.7249C4.31045 18.6712 7.06348 22.9223 9.20472 26.2003L13.1303 32.2441L6.7066 42.0269C3.18885 47.4561 0.180913 52.1682 0.027967 52.5779C-0.175961 53.0901 0.690732 53.2438 4.10652 53.2438C9.20472 53.2438 8.389 53.9096 13.8951 45.1512C15.8834 42.0269 17.6167 39.466 17.7697 39.4147C17.9226 39.4147 20.0639 42.5391 22.511 46.3293L26.9974 53.2438H31.5348C34.0329 53.2438 36.0722 53.1413 36.0722 52.9877C36.0722 52.834 33.1152 48.2243 29.4445 42.744C25.8248 37.2636 22.8169 32.6539 22.8169 32.5002C22.8169 32.3466 25.468 28.0954 28.6798 23.0248C31.8917 18.0053 34.5427 13.703 34.5427 13.5493C34.5427 13.3957 32.5544 13.3444 30.1583 13.3957L25.7738 13.5493L22.1031 19.5419C20.1149 22.8199 18.3305 25.6369 18.1775 25.7906C18.0246 25.9955 16.0873 23.2296 13.946 19.6956L9.96945 13.2932H5.43205H0.89466L3.13787 16.7249Z" fill="#434343"/>
<path d="M96.7402 16.6229V19.9521H100.564H104.388V16.6229V13.2937H100.564H96.7402V16.6229Z" fill="#434343"/>
<path d="M150.424 16.3154L147.263 18.1593L147.212 21.0787V24.0494H145.428H143.644V27.1225V30.1957H145.428H147.212V39.415C147.212 50.5807 147.518 51.6563 150.985 52.988C152.769 53.6538 154.044 53.8075 156.236 53.5514C157.868 53.3465 159.346 53.0392 159.601 52.7831C159.856 52.527 159.958 51.2465 159.856 49.8636L159.703 47.3539L157.562 47.5076C154.554 47.7637 154.35 47.0978 154.35 37.9297V30.1957H156.899H159.448V27.1225V24.0494H156.899H154.35V19.1837C154.35 16.5203 154.197 14.3179 153.993 14.3691C153.738 14.4203 152.158 15.2398 150.424 16.3154Z" fill="#434343"/>
<path d="M51.9272 24.869C50.4487 25.6372 48.9702 26.6616 48.6643 27.1738C47.7466 28.6591 47.2878 28.3518 47.2878 26.0982V24.0495H43.974H40.6602V44.0247V64H44.2289H47.7976V56.8294C47.7976 52.8856 48.0016 49.6588 48.2055 49.6588C48.4604 49.6588 49.0722 50.171 49.633 50.7344C51.0605 52.3221 54.3743 53.7563 56.7704 53.7563C59.6764 53.7563 63.8569 51.5026 65.6923 48.8905C70.2297 42.5394 69.21 30.4006 63.806 26.3031C59.9313 23.3324 56.0057 22.8714 51.9272 24.869ZM57.8411 30.4518C60.1862 32.0396 60.798 33.6786 60.798 38.6468C60.798 42.2321 60.5941 43.615 59.8803 44.6906C56.3626 50.0685 49.633 48.2247 48.2055 41.4638C46.4721 32.9615 52.0291 26.6104 57.8411 30.4518Z" fill="#434343"/>
<path d="M85.7805 24.1007C85.2197 24.408 83.9961 25.4836 83.1294 26.508L81.447 28.4031V26.2007V24.0495H78.1332H74.8193V38.6468V53.2441H78.3371H81.8039L82.0588 44.1272C82.2627 36.9566 82.4666 34.6518 83.1804 33.1664C84.5059 30.4518 87.055 29.5811 90.1649 30.9128C90.8277 31.2201 91.2355 30.6567 92.0512 28.147L93.1219 25.0227L91.3885 24.2544C89.3492 23.4349 87.2079 23.3325 85.7805 24.1007Z" fill="#434343"/>
<path d="M125.087 24.3057C124.017 24.6642 122.232 25.6886 121.162 26.6105L119.174 28.1983V26.0983V24.0496H115.86H112.546V38.6469V53.2442H116.064H119.581L119.785 43.359C119.989 32.6543 120.142 31.8348 122.895 30.1958C125.138 28.8129 127.484 28.9153 129.217 30.4007L130.644 31.6299L130.899 42.3346L131.154 52.9881L134.876 53.1418L138.547 53.2954V42.6419C138.547 36.803 138.292 31.0665 138.037 29.9397C136.915 25.0739 130.644 22.3081 125.087 24.3057Z" fill="#434343"/>
<path d="M172.703 23.9983C167.146 25.6885 163.832 30.2982 163.169 36.9566C162.354 46.2272 166.993 52.7319 175.15 53.5514C180.707 54.166 185.143 52.3222 187.794 48.4296C189.68 45.6638 189.425 45.3052 185.703 44.7418C182.441 44.2296 182.339 44.2296 181.523 45.5101C180.197 47.5588 179.28 48.071 176.884 48.1222C174.997 48.1222 174.335 47.8149 172.958 46.432C171.174 44.6394 170.358 42.5394 170.868 41.2077C171.072 40.5419 172.652 40.4395 180.656 40.4395H190.139L189.833 37.4688C189.272 32.6542 188.049 29.7348 185.703 27.3275C182.543 24.1519 176.935 22.7178 172.703 23.9983ZM179.331 29.9396C181.013 30.8103 182.39 33.064 182.39 35.0615V36.342H176.527C170.052 36.342 170.001 36.342 171.378 33.064C172.805 29.6323 176.17 28.3006 179.331 29.9396Z" fill="#434343"/>
<path d="M207.116 24.2544C206.25 24.6129 205.128 25.5349 204.669 26.3031C203.446 28.147 202.783 27.9933 202.783 25.8422V24.0495H199.469H196.155V38.6468V53.2441H199.622H203.14L203.446 44.2809C203.803 34.6006 204.312 32.4494 206.556 30.964C207.83 30.0933 209.615 30.0933 211.552 30.9128C212.215 31.2201 212.571 30.7079 213.438 28.4031C214.05 26.8153 214.509 25.33 214.509 25.0739C214.509 24.5617 211.246 23.5373 209.665 23.5373C209.105 23.5885 207.932 23.8959 207.116 24.2544Z" fill="#434343"/>
<path d="M96.7402 38.6469V53.2954L100.462 53.1418L104.133 52.9881V38.6469V24.3057L100.462 24.152L96.7402 23.9983V38.6469Z" fill="#434343"/>
</svg>
