<svg width="278" height="64" viewBox="0 0 278 64" fill="none" xmlns="http://www.w3.org/2000/svg">
<path d="M205.313 62.7032H175.323L179.852 42.6021H201.293L199.491 50.6426H186.645L185.72 54.6628H207.115L205.313 62.7032ZM210.766 38.5819H180.776L182.578 30.5415H212.568L210.766 38.5819Z" fill="#434343"/>
<path d="M139.46 0.0462052L105.496 25.0917L122.224 63.9538L104.017 64L92.6498 34.7033L79.2491 45.239L75.044 63.9538L0 64L2.07942 52.078L45.7473 11.4137H13.5393L15.665 0.0462052L67.6967 0L65.4787 10.6282L19.639 52.6325L63.3531 52.5863L75.3213 0L90.3393 0.0462052L83.6852 27.587L118.619 0L139.46 0.0462052Z" fill="#434343"/>
<path d="M240.096 54.6682C239.68 56.5165 239.264 57.7642 238.894 58.5498C238.247 59.8898 237.277 60.8602 235.983 61.5534C234.458 62.3389 232.333 62.7548 229.652 62.7548H216.806C214.034 62.7548 212.093 62.3389 210.891 61.461C209.921 60.7678 209.459 59.705 209.459 58.2725C209.459 57.7642 209.505 57.1635 209.644 56.5628C209.69 56.2855 209.829 55.6848 210.06 54.7144L212.786 42.6537H221.381L218.655 54.7144H231.501L232.425 50.6942H240.974L240.096 54.6682ZM242.822 42.6075H234.273L235.198 38.5873H213.803C214.219 36.7851 214.588 35.4913 215.004 34.7519C215.651 33.4118 216.621 32.3952 217.869 31.7483C219.394 30.9627 221.52 30.5469 224.2 30.5469H237.046C239.819 30.5469 241.759 30.9628 242.915 31.8407C243.885 32.5801 244.347 33.6429 244.347 35.0292C244.347 35.5375 244.301 36.1382 244.162 36.7851C244.116 37.0162 243.977 37.6631 243.793 38.5873L242.822 42.6075Z" fill="#434343"/>
<path d="M273.092 54.6635C272.676 56.4656 272.26 57.7595 271.89 58.5451C271.243 59.8851 270.273 60.8555 268.979 61.5487C267.454 62.3342 265.328 62.7501 262.694 62.7501H249.848C247.076 62.7501 245.135 62.3342 243.933 61.4563C243.009 60.7631 242.501 59.7003 242.501 58.2678C242.501 57.7595 242.547 57.1588 242.686 56.5581C242.732 56.2808 242.871 55.6801 243.102 54.7097L245.828 42.649H254.377L251.65 54.7097H264.497L268.147 38.6288H246.706C247.122 36.8267 247.492 35.5328 247.907 34.7934C248.554 33.4534 249.525 32.4368 250.819 31.7898C252.344 31.0043 254.469 30.5884 257.149 30.5884H269.996C272.768 30.5884 274.709 31.0043 275.864 31.8823C276.788 32.6216 277.297 33.6844 277.297 35.0707C277.297 35.579 277.25 36.1797 277.112 36.8266C277.066 37.0577 276.927 37.7046 276.696 38.6288L273.092 54.6635Z" fill="#434343"/>
<path d="M139.407 0.0462052L195.274 0L191.623 11.5523H170.921L155.21 63.9076L141.116 63.9538L156.227 11.4599L123.834 11.5523L139.407 0.0462052Z" fill="#434343"/>
</svg>
